<svg width="772" height="405" viewBox="0 0 772 405" fill="none" xmlns="http://www.w3.org/2000/svg">
<path opacity="0.1" d="M386 353.736C599.182 353.736 772 350.94 772 347.492C772 344.044 599.182 341.249 386 341.249C172.818 341.249 0 344.044 0 347.492C0 350.94 172.818 353.736 386 353.736Z" fill="#7CB083"/>
<path opacity="0.1" d="M386 405C599.182 405 772 402.205 772 398.757C772 395.309 599.182 392.513 386 392.513C172.818 392.513 0 395.309 0 398.757C0 402.205 172.818 405 386 405Z" fill="#7CB083"/>
<path opacity="0.1" d="M386 246.746C599.182 246.746 772 243.951 772 240.503C772 237.055 599.182 234.259 386 234.259C172.818 234.259 0 237.055 0 240.503C0 243.951 172.818 246.746 386 246.746Z" fill="#7CB083"/>
<path opacity="0.1" d="M386 300.237C599.182 300.237 772 297.442 772 293.994C772 290.546 599.182 287.751 386 287.751C172.818 287.751 0 290.546 0 293.994C0 297.442 172.818 300.237 386 300.237Z" fill="#7CB083"/>
<path opacity="0.1" d="M569.695 77.7741C567.181 77.299 564.581 77.5836 562.229 78.5915C560.817 79.221 559.288 79.5463 557.742 79.5463C556.196 79.5463 554.667 79.221 553.255 78.5915C551.584 77.8578 549.774 77.4961 547.95 77.5314C546.125 77.5667 544.331 77.9981 542.689 78.7958C541.754 79.2928 540.712 79.554 539.654 79.5569C535.371 79.5569 531.814 75.2443 531.074 69.5576C531.917 68.9291 532.634 68.1474 533.187 67.2534C535.695 63.2086 539.576 60.6084 543.943 60.6084C548.31 60.6084 552.142 63.1733 554.65 67.1759C555.397 68.3852 556.444 69.3803 557.689 70.0645C558.935 70.7486 560.336 71.0984 561.757 71.0797H561.87C565.314 71.0445 568.265 73.7786 569.695 77.7741Z" fill="#7CB083"/>
<path opacity="0.1" d="M582.733 59.9107L575.816 64.2938L580.043 56.6552C578.852 55.7074 577.38 55.1841 575.859 55.1683H575.746C575.274 55.1748 574.803 55.1394 574.337 55.0626L571.956 56.5495L572.964 54.7173C571.299 54.141 569.861 53.0503 568.857 51.6027L564.631 54.2664L567.279 49.4464C564.828 46.5009 561.517 44.697 557.883 44.697C553.516 44.697 549.635 47.2902 547.12 51.3349C546.379 52.5444 545.331 53.5361 544.082 54.2093C542.834 54.8826 541.43 55.2135 540.013 55.1683H539.78C534.962 55.1683 531.06 60.6295 531.06 67.3661C531.06 74.1027 534.962 79.5709 539.78 79.5709C540.839 79.5639 541.88 79.3029 542.816 78.8099C544.457 78.0101 546.251 77.577 548.076 77.5405C549.9 77.504 551.711 77.865 553.382 78.5985C554.793 79.2324 556.322 79.5601 557.869 79.5601C559.415 79.5601 560.945 79.2324 562.356 78.5985C564.013 77.8814 565.806 77.5286 567.611 77.5639C569.417 77.5991 571.194 78.0216 572.823 78.8028C573.749 79.2878 574.778 79.5439 575.823 79.5498C580.641 79.5498 584.544 74.0816 584.544 67.345C584.573 64.7543 583.95 62.1978 582.733 59.9107V59.9107Z" fill="#7CB083"/>
<path opacity="0.1" d="M275.596 73.9618C273.833 73.6287 272.011 73.8273 270.362 74.5326C269.375 74.9739 268.306 75.202 267.224 75.202C266.143 75.202 265.073 74.9739 264.086 74.5326C262.918 74.0192 261.651 73.7664 260.375 73.792C259.099 73.8176 257.844 74.1208 256.697 74.6805C256.044 75.0211 255.32 75.2022 254.584 75.209C251.59 75.209 249.097 72.1931 248.576 68.2117C249.173 67.7735 249.682 67.226 250.076 66.598C251.83 63.7794 254.549 61.9472 257.606 61.9472C260.663 61.9472 263.347 63.7441 265.1 66.5416C265.624 67.3885 266.358 68.0853 267.231 68.5644C268.103 69.0435 269.085 69.2886 270.08 69.2757H270.158C272.525 69.2617 274.588 71.1783 275.596 73.9618Z" fill="#7CB083"/>
<path opacity="0.1" d="M284.717 61.4681L279.878 64.5404L282.815 59.192C281.985 58.527 280.956 58.1598 279.892 58.1491H279.808C279.473 58.1551 279.138 58.1291 278.808 58.0716L277.166 59.1145L277.871 57.832C276.707 57.4271 275.702 56.6651 274.997 55.6546L272.06 57.5149L273.919 54.1466C273.138 53.1377 272.143 52.3153 271.005 51.7388C269.867 51.1624 268.615 50.8463 267.34 50.8135C264.283 50.8135 261.564 52.6315 259.81 55.4643C259.291 56.3113 258.556 57.0057 257.682 57.4772C256.807 57.9487 255.823 58.1805 254.83 58.1491H254.668C251.295 58.1491 248.562 61.9684 248.562 66.6896C248.562 71.4109 251.295 75.2302 254.668 75.2302C255.406 75.2245 256.131 75.0408 256.782 74.6947C257.929 74.138 259.183 73.8371 260.457 73.8127C261.732 73.7884 262.996 74.0412 264.164 74.5537C265.157 75.007 266.234 75.247 267.326 75.2584C268.401 75.2565 269.464 75.0309 270.447 74.596C271.607 74.0938 272.861 73.8465 274.125 73.8708C275.388 73.8951 276.632 74.1904 277.772 74.7369C278.424 75.0787 279.149 75.2576 279.885 75.2584C283.252 75.2584 285.985 71.432 285.985 66.7178C286.014 64.8887 285.577 63.0824 284.717 61.4681V61.4681Z" fill="#7CB083"/>
<path opacity="0.1" d="M189.894 129.215C191.654 128.882 193.473 129.081 195.12 129.785C196.109 130.227 197.179 130.455 198.262 130.455C199.344 130.455 200.415 130.227 201.403 129.785C202.572 129.273 203.837 129.02 205.113 129.044C206.389 129.069 207.644 129.37 208.792 129.926C209.443 130.273 210.168 130.457 210.905 130.462C213.899 130.462 216.392 127.439 216.907 123.458C216.309 123.021 215.802 122.473 215.413 121.844C213.652 119.025 210.933 117.2 207.883 117.2C204.833 117.2 202.143 118.99 200.382 121.795C199.859 122.64 199.126 123.337 198.255 123.816C197.383 124.295 196.403 124.54 195.409 124.529H195.331C192.958 124.543 190.887 126.452 189.894 129.215Z" fill="#7CB083"/>
<path opacity="0.1" d="M180.765 116.742L185.611 119.814L182.667 114.473C183.499 113.806 184.53 113.436 185.597 113.423H185.674C186.012 113.428 186.348 113.404 186.682 113.353L188.323 114.388L187.618 113.113C188.779 112.707 189.783 111.945 190.485 110.936L193.423 112.796L191.591 109.421C192.372 108.413 193.368 107.591 194.506 107.016C195.644 106.441 196.896 106.126 198.17 106.095C201.22 106.095 203.946 107.913 205.7 110.745C206.219 111.591 206.952 112.285 207.826 112.756C208.699 113.228 209.681 113.46 210.673 113.43H210.842C214.209 113.43 216.942 117.256 216.942 121.971C216.942 126.685 214.209 130.511 210.842 130.511C210.105 130.508 209.38 130.327 208.729 129.983C207.582 129.423 206.327 129.12 205.051 129.094C203.775 129.069 202.508 129.321 201.34 129.835C200.35 130.292 199.274 130.532 198.184 130.539C197.107 130.539 196.042 130.313 195.057 129.877C193.898 129.375 192.645 129.128 191.382 129.152C190.12 129.176 188.877 129.472 187.738 130.018C187.086 130.36 186.361 130.539 185.625 130.539C182.251 130.539 179.518 126.72 179.518 121.999C179.485 120.17 179.914 118.362 180.765 116.742V116.742Z" fill="#7CB083"/>
<path d="M467.927 345.47C469.765 342.059 467.68 337.888 465.285 334.85C462.89 331.813 459.96 328.649 460.023 324.781C460.115 319.221 466.018 315.93 470.73 312.985C474.229 310.789 477.457 308.188 480.345 305.233C481.552 304.096 482.551 302.756 483.296 301.273C484.275 299.103 484.247 296.622 484.184 294.226C483.982 286.292 483.59 278.362 483.007 270.437" stroke="#3F3D56" stroke-width="4" stroke-miterlimit="10"/>
<path d="M491.974 270.042C491.906 268.589 491.473 267.176 490.716 265.933C489.959 264.691 488.902 263.659 487.642 262.932L485.698 266.773L485.761 262.122C483.998 261.602 482.116 261.657 480.385 262.278C478.655 262.898 477.167 264.053 476.136 265.575C475.104 267.096 474.583 268.907 474.646 270.744C474.71 272.582 475.356 274.352 476.491 275.798C477.625 277.245 479.19 278.293 480.959 278.792C482.728 279.291 484.609 279.215 486.332 278.574C488.055 277.934 489.53 276.762 490.544 275.229C491.558 273.695 492.059 271.879 491.974 270.042V270.042Z" fill="#7CB083"/>
<path d="M476.506 328.755C475.633 330.451 474.227 331.812 472.503 332.628C470.78 333.444 468.835 333.668 466.972 333.267C465.108 332.866 463.428 331.861 462.192 330.409C460.956 328.956 460.234 327.137 460.136 325.232C460.071 324.031 460.263 322.829 460.699 321.708C461.338 320.074 462.457 318.671 463.909 317.685C465.36 316.699 467.077 316.177 468.831 316.187C470.586 316.197 472.296 316.738 473.736 317.741C475.177 318.743 476.28 320.158 476.9 321.8L471.483 326.211L477.442 324.802C477.449 326.175 477.128 327.531 476.506 328.755V328.755Z" fill="#7CB083"/>
<path d="M472.223 311.914C470.095 312.014 468.005 311.327 466.351 309.984C464.697 308.641 463.595 306.736 463.255 304.632C462.915 302.528 463.362 300.372 464.509 298.577C465.657 296.781 467.425 295.471 469.476 294.896L469.427 298.469L471.392 294.579C473.69 294.471 475.936 295.281 477.637 296.831C479.337 298.38 480.353 300.542 480.461 302.841C480.568 305.14 479.758 307.387 478.209 309.088C476.661 310.79 474.5 311.806 472.202 311.914H472.223Z" fill="#7CB083"/>
<path d="M493.277 297.898C491.933 297.967 490.591 297.723 489.357 297.183C488.124 296.644 487.032 295.825 486.17 294.79C485.308 293.756 484.699 292.535 484.39 291.224C484.081 289.914 484.082 288.549 484.392 287.238C484.701 285.928 485.312 284.707 486.175 283.674C487.038 282.64 488.13 281.822 489.364 281.283C490.598 280.745 491.94 280.502 493.284 280.572C494.629 280.643 495.938 281.026 497.109 281.69L495.58 285.918L498.701 282.832C499.963 283.99 500.854 285.495 501.262 287.159C501.67 288.822 501.577 290.569 500.994 292.18C500.411 293.79 499.364 295.192 497.986 296.209C496.607 297.225 494.959 297.81 493.249 297.891L493.277 297.898Z" fill="#7CB083"/>
<path opacity="0.1" d="M490.805 272.354C488.804 272.572 486.86 273.192 484.846 273.319C482.831 273.446 480.619 272.96 479.366 271.402C478.776 270.495 478.24 269.554 477.76 268.584C477.212 267.729 476.462 267.022 475.576 266.526C475.015 267.625 474.695 268.832 474.637 270.065C474.58 271.298 474.786 272.529 475.242 273.676C475.698 274.823 476.393 275.859 477.282 276.716C478.17 277.572 479.231 278.229 480.393 278.643C481.556 279.056 482.793 279.217 484.023 279.114C485.252 279.011 486.446 278.647 487.523 278.045C488.601 277.444 489.537 276.62 490.271 275.627C491.004 274.635 491.518 273.497 491.777 272.29C491.46 272.297 491.129 272.318 490.805 272.354Z" fill="black"/>
<path opacity="0.1" d="M493.277 297.898C491.782 297.969 490.294 297.651 488.958 296.976C487.622 296.301 486.483 295.291 485.653 294.046C484.822 292.8 484.328 291.36 484.219 289.867C484.11 288.374 484.389 286.877 485.029 285.524C485.716 285.988 486.307 286.582 486.768 287.271C487.286 288.259 487.86 289.217 488.487 290.139C489.839 291.725 492.15 292.253 494.242 292.148C496.334 292.042 498.355 291.443 500.44 291.267C500.729 291.267 501.018 291.225 501.314 291.218C500.882 293.054 499.864 294.699 498.414 295.905C496.964 297.11 495.16 297.81 493.277 297.898V297.898Z" fill="black"/>
<path opacity="0.1" d="M472.223 311.914C470.744 311.983 469.271 311.672 467.945 311.01C466.62 310.349 465.486 309.358 464.652 308.134C463.818 306.909 463.311 305.491 463.18 304.015C463.05 302.539 463.299 301.054 463.904 299.702C464.619 300.172 465.242 300.769 465.743 301.463C466.311 302.475 466.939 303.451 467.624 304.388C469.082 306.016 471.547 306.593 473.759 306.502C475.971 306.41 477.985 305.931 480.098 305.797C479.572 307.502 478.534 309.004 477.125 310.098C475.716 311.193 474.005 311.826 472.223 311.914Z" fill="black"/>
<path opacity="0.1" d="M476.506 328.755C475.633 330.451 474.227 331.812 472.503 332.628C470.78 333.444 468.836 333.668 466.972 333.267C465.108 332.866 463.428 331.861 462.192 330.409C460.956 328.956 460.234 327.137 460.136 325.232C460.071 324.031 460.263 322.829 460.699 321.708C461.414 322.177 462.054 322.75 462.601 323.407C463.425 324.407 463.968 325.521 464.926 326.486C466.694 328.227 469.56 328.945 472.103 329.009C473.575 329.013 475.045 328.929 476.506 328.755V328.755Z" fill="black"/>
<path d="M38.2547 294.734C40.0932 291.323 38.0082 287.152 35.6133 284.114C33.2184 281.077 30.2882 277.899 30.3516 274.045C30.4432 268.485 36.3459 265.194 41.0582 262.249C44.5576 260.054 47.785 257.452 50.673 254.497C51.8807 253.36 52.8796 252.02 53.6243 250.537C54.6034 248.367 54.5752 245.886 54.5118 243.49C54.3052 235.556 53.9131 227.626 53.3355 219.701" stroke="#3F3D56" stroke-width="4" stroke-miterlimit="10"/>
<path d="M62.3023 219.306C62.2343 217.853 61.8019 216.44 61.0449 215.197C60.2878 213.955 59.2306 212.923 57.9704 212.196L56.0263 216.037L56.0897 211.386C54.3266 210.867 52.4441 210.921 50.714 211.542C48.984 212.162 47.4957 213.317 46.4642 214.839C45.4327 216.36 44.9112 218.171 44.975 220.008C45.0388 221.846 45.6846 223.616 46.8192 225.062C47.9538 226.509 49.5185 227.557 51.2874 228.056C53.0564 228.555 54.9381 228.479 56.6609 227.838C58.3837 227.198 59.8586 226.026 60.8726 224.493C61.8866 222.959 62.3872 221.143 62.3023 219.306Z" fill="#7CB083"/>
<path d="M46.8342 278.019C45.962 279.715 44.5552 281.076 42.8317 281.892C41.1083 282.708 39.1641 282.932 37.3001 282.531C35.4362 282.13 33.7564 281.125 32.5207 279.673C31.285 278.22 30.5623 276.401 30.4644 274.496C30.3996 273.295 30.5917 272.093 31.0279 270.972C31.6665 269.338 32.7855 267.935 34.2372 266.949C35.6889 265.963 37.4052 265.441 39.1598 265.451C40.9143 265.461 42.6246 266.002 44.0651 267.005C45.5056 268.007 46.6086 269.422 47.2287 271.064L41.812 275.475L47.771 274.066C47.7779 275.439 47.4567 276.795 46.8342 278.019V278.019Z" fill="#7CB083"/>
<path d="M42.5516 261.178C40.4236 261.278 38.3333 260.591 36.6792 259.248C35.0252 257.905 33.9232 256 33.5836 253.896C33.244 251.792 33.6904 249.636 34.8378 247.841C35.9852 246.045 37.7532 244.735 39.8045 244.16L39.7552 247.733L41.7204 243.843C42.8582 243.79 43.9953 243.961 45.0668 244.348C46.1383 244.734 47.1232 245.328 47.9653 246.095C48.8075 246.862 49.4903 247.788 49.9748 248.819C50.4594 249.85 50.7361 250.967 50.7893 252.105C50.8425 253.243 50.6711 254.381 50.2848 255.453C49.8986 256.525 49.305 257.51 48.5381 258.352C47.7712 259.195 46.8459 259.878 45.8152 260.363C44.7844 260.847 43.6682 261.124 42.5305 261.178H42.5516Z" fill="#7CB083"/>
<path d="M63.6055 247.162C62.2611 247.231 60.919 246.987 59.6854 246.447C58.4519 245.908 57.3609 245.089 56.4987 244.054C55.6366 243.02 55.027 241.799 54.7182 240.488C54.4095 239.178 54.41 237.813 54.7199 236.502C55.0297 235.192 55.6404 233.971 56.5034 232.938C57.3664 231.904 58.4581 231.086 59.6921 230.548C60.9261 230.009 62.2684 229.766 63.6127 229.836C64.957 229.907 66.2665 230.29 67.4373 230.954L65.9088 235.182L69.0292 232.096C70.2912 233.254 71.1825 234.759 71.5905 236.423C71.9986 238.086 71.9052 239.833 71.3221 241.444C70.739 243.054 69.6924 244.456 68.3141 245.473C66.9358 246.489 65.2876 247.074 63.5773 247.155L63.6055 247.162Z" fill="#7CB083"/>
<path opacity="0.1" d="M61.133 221.618C59.1326 221.836 57.1885 222.456 55.174 222.583C53.1595 222.71 50.9477 222.224 49.6939 220.666C49.1042 219.759 48.568 218.818 48.0879 217.848C47.5403 216.993 46.7903 216.286 45.9043 215.79C45.3434 216.889 45.0234 218.096 44.9658 219.329C44.9081 220.562 45.1142 221.793 45.5702 222.94C46.0262 224.087 46.7216 225.123 47.6099 225.98C48.4983 226.836 49.5592 227.493 50.7217 227.907C51.8842 228.321 53.1215 228.481 54.351 228.378C55.5805 228.275 56.7739 227.911 57.8514 227.309C58.9289 226.708 59.8657 225.884 60.5993 224.891C61.3328 223.899 61.8462 222.761 62.1051 221.554C61.7881 221.561 61.457 221.582 61.133 221.618Z" fill="black"/>
<path opacity="0.1" d="M63.6054 247.162C62.1103 247.233 60.6224 246.915 59.2864 246.24C57.9503 245.565 56.8117 244.555 55.9813 243.31C55.1509 242.064 54.657 240.624 54.5476 239.131C54.4382 237.638 54.7171 236.141 55.3571 234.788C56.0445 235.252 56.6354 235.846 57.0969 236.535C57.615 237.523 58.1888 238.481 58.8156 239.403C60.168 240.989 62.4784 241.517 64.5704 241.412C66.6624 241.306 68.684 240.707 70.7689 240.531C71.0577 240.531 71.3465 240.489 71.6424 240.482C71.2109 242.318 70.193 243.963 68.7427 245.169C67.2924 246.374 65.4889 247.074 63.6054 247.162Z" fill="black"/>
<path opacity="0.1" d="M42.5516 261.178C41.0719 261.247 39.5992 260.936 38.2738 260.274C36.9485 259.613 35.8146 258.622 34.9805 257.398C34.1463 256.173 33.6396 254.755 33.5088 253.279C33.3779 251.803 33.6272 250.318 34.2328 248.966C34.9475 249.436 35.5705 250.033 36.0713 250.727C36.6393 251.739 37.2673 252.715 37.952 253.652C39.41 255.28 41.8754 255.857 44.0871 255.766C46.2989 255.674 48.3134 255.195 50.4265 255.061C49.9006 256.766 48.8627 258.268 47.4537 259.362C46.0448 260.457 44.3332 261.09 42.5516 261.178Z" fill="black"/>
<path opacity="0.1" d="M46.8342 278.019C45.962 279.715 44.5552 281.076 42.8317 281.892C41.1082 282.708 39.1641 282.932 37.3001 282.531C35.4362 282.13 33.7564 281.125 32.5207 279.673C31.285 278.22 30.5623 276.401 30.4644 274.496C30.3996 273.295 30.5917 272.093 31.0279 270.972C31.7422 271.442 32.3831 272.014 32.9298 272.671C33.7539 273.671 34.2963 274.785 35.2542 275.75C37.0222 277.491 39.889 278.209 42.4318 278.273C43.9031 278.277 45.3732 278.193 46.8342 278.019V278.019Z" fill="black"/>
<path d="M324.381 236.69C322.543 233.287 324.627 229.115 327.029 226.078C329.431 223.041 332.347 219.877 332.284 216.008C332.2 210.442 326.297 207.158 321.578 204.212C318.079 202.018 314.854 199.416 311.97 196.461C310.756 195.33 309.754 193.991 309.011 192.508C308.039 190.33 308.068 187.857 308.124 185.461C308.335 177.527 308.727 169.597 309.3 161.672" stroke="#3F3D56" stroke-width="4" stroke-miterlimit="10"/>
<path d="M300.34 161.27C300.407 159.817 300.838 158.404 301.594 157.162C302.35 155.919 303.406 154.887 304.665 154.16L306.609 158L306.553 153.349C307.479 153.08 308.443 152.964 309.406 153.004C311.119 153.084 312.77 153.67 314.149 154.689C315.529 155.707 316.577 157.112 317.158 158.725C317.74 160.339 317.831 162.089 317.419 163.754C317.007 165.419 316.11 166.925 314.843 168.08C313.576 169.236 311.994 169.99 310.299 170.246C308.603 170.503 306.87 170.251 305.318 169.522C303.765 168.793 302.464 167.62 301.578 166.151C300.692 164.682 300.262 162.984 300.34 161.27V161.27Z" fill="#7CB083"/>
<path d="M315.802 219.983C316.71 221.753 318.2 223.157 320.021 223.959C321.842 224.761 323.883 224.912 325.802 224.386C327.721 223.861 329.401 222.692 330.561 221.075C331.72 219.458 332.288 217.491 332.17 215.504C332.052 213.517 331.254 211.632 329.911 210.163C328.568 208.695 326.761 207.733 324.794 207.44C322.826 207.146 320.817 207.538 319.104 208.551C317.391 209.563 316.079 211.134 315.386 213L320.803 217.411L314.844 216.001C314.839 217.386 315.167 218.752 315.802 219.983V219.983Z" fill="#7CB083"/>
<path d="M320.084 203.141C322.213 203.244 324.305 202.558 325.96 201.216C327.616 199.873 328.719 197.968 329.06 195.863C329.401 193.759 328.955 191.602 327.807 189.806C326.659 188.009 324.891 186.698 322.838 186.124L322.881 189.696L320.915 185.806C318.618 185.693 316.371 186.498 314.667 188.043C312.963 189.587 311.942 191.746 311.829 194.044C311.779 195.045 311.906 196.046 312.202 197.004C312.722 198.715 313.759 200.224 315.17 201.323C316.581 202.422 318.298 203.057 320.084 203.141V203.141Z" fill="#7CB083"/>
<path d="M299.037 189.111C300.382 189.18 301.723 188.934 302.956 188.394C304.189 187.854 305.279 187.034 306.141 186C307.002 184.965 307.611 183.744 307.919 182.433C308.227 181.123 308.226 179.758 307.916 178.448C307.605 177.138 306.994 175.918 306.131 174.885C305.268 173.852 304.176 173.034 302.942 172.496C301.708 171.958 300.366 171.715 299.022 171.786C297.678 171.857 296.369 172.239 295.199 172.904L296.734 177.132L293.578 174.109C292.737 174.872 292.054 175.794 291.571 176.822C291.087 177.85 290.812 178.964 290.761 180.099C290.719 180.901 290.793 181.706 290.979 182.487C291.421 184.317 292.447 185.953 293.9 187.148C295.354 188.343 297.157 189.032 299.037 189.111Z" fill="#7CB083"/>
<path opacity="0.1" d="M301.51 163.581C303.51 163.8 305.454 164.42 307.462 164.547C309.469 164.674 311.688 164.187 312.949 162.63C313.536 161.722 314.07 160.781 314.548 159.811C315.098 158.956 315.85 158.249 316.738 157.754C317.3 158.853 317.621 160.06 317.679 161.294C317.737 162.528 317.532 163.76 317.076 164.907C316.619 166.055 315.924 167.092 315.035 167.949C314.145 168.806 313.084 169.463 311.92 169.877C310.757 170.29 309.519 170.45 308.289 170.346C307.058 170.243 305.865 169.877 304.787 169.274C303.709 168.672 302.773 167.846 302.04 166.852C301.307 165.858 300.795 164.719 300.538 163.511C300.855 163.518 301.179 163.546 301.51 163.581Z" fill="black"/>
<path opacity="0.1" d="M299.037 189.111C300.532 189.18 302.019 188.861 303.354 188.186C304.688 187.51 305.826 186.501 306.656 185.256C307.486 184.01 307.98 182.572 308.09 181.079C308.201 179.587 307.924 178.091 307.286 176.737C306.596 177.202 306.003 177.795 305.539 178.485C305.021 179.473 304.447 180.43 303.82 181.353C302.475 182.938 300.164 183.467 298.072 183.361C295.98 183.256 293.959 182.657 291.874 182.48C291.585 182.48 291.289 182.438 291 182.431C291.431 184.268 292.449 185.914 293.899 187.12C295.35 188.325 297.154 189.025 299.037 189.111V189.111Z" fill="black"/>
<path opacity="0.1" d="M320.084 203.141C321.564 203.213 323.038 202.903 324.365 202.242C325.691 201.581 326.826 200.59 327.661 199.365C328.495 198.14 329.002 196.721 329.132 195.244C329.262 193.767 329.011 192.282 328.403 190.929C327.689 191.399 327.068 191.996 326.572 192.691C326.004 193.703 325.376 194.679 324.691 195.615C323.226 197.243 320.767 197.821 318.549 197.729C316.33 197.638 314.322 197.159 312.209 197.025C312.732 198.731 313.77 200.235 315.179 201.33C316.589 202.424 318.302 203.057 320.084 203.141V203.141Z" fill="black"/>
<path opacity="0.1" d="M315.802 219.983C316.819 221.946 318.548 223.446 320.635 224.176C322.721 224.906 325.007 224.812 327.027 223.912C329.046 223.013 330.645 221.375 331.498 219.335C332.351 217.295 332.393 215.006 331.615 212.936C330.897 213.401 330.256 213.974 329.713 214.634C328.889 215.635 328.304 216.748 327.389 217.714C325.613 219.454 322.754 220.173 320.204 220.236C318.733 220.237 317.263 220.153 315.802 219.983V219.983Z" fill="black"/>
<path d="M549.226 238.276C588.112 238.276 619.635 206.74 619.635 167.837C619.635 128.935 588.112 97.399 549.226 97.399C510.339 97.399 478.816 128.935 478.816 167.837C478.816 206.74 510.339 238.276 549.226 238.276Z" fill="#F2CC8F"/>
<path d="M579.451 186.004C576.999 183.552 571.104 179.852 568.181 178.471C564.807 176.85 563.567 176.878 561.179 178.605C559.193 180.014 557.904 181.374 555.622 180.874C553.339 180.373 548.817 176.963 544.443 172.601C540.069 168.239 536.674 163.743 536.188 161.425C535.702 159.107 537.04 157.845 538.463 155.858C540.182 153.469 540.231 152.229 538.597 148.854C537.188 145.929 533.532 140.045 531.06 137.579C528.587 135.113 528.052 135.655 526.7 136.17C525.308 136.753 523.971 137.461 522.706 138.284C520.255 139.926 518.881 141.293 517.916 143.35C516.951 145.408 515.859 149.227 521.473 159.226C525.615 166.876 530.86 173.873 537.04 179.993V179.993C543.178 186.19 550.197 191.447 557.868 195.594C567.857 201.232 571.681 200.111 573.738 199.153C575.795 198.194 577.161 196.835 578.796 194.361C579.62 193.096 580.327 191.759 580.909 190.366C581.374 189.013 581.923 188.463 579.451 186.004Z" fill="#7CB083"/>
<path opacity="0.1" d="M549.226 97.406C535.291 97.3991 521.668 101.527 510.079 109.267C498.49 117.007 489.457 128.012 484.121 140.89C478.785 153.768 477.387 167.939 480.104 181.611C482.821 195.284 489.53 207.843 499.383 217.7C509.236 227.557 521.79 234.269 535.457 236.987C549.124 239.705 563.29 238.306 576.162 232.969C589.034 227.631 600.035 218.593 607.772 207C615.509 195.406 619.635 181.777 619.628 167.837C619.619 149.161 612.199 131.252 598.998 118.045C585.797 104.839 567.895 97.4154 549.226 97.406V97.406ZM549.226 228.911C537.151 228.911 525.348 225.329 515.309 218.618C505.269 211.907 497.445 202.369 492.824 191.209C488.203 180.05 486.995 167.77 489.35 155.923C491.706 144.076 497.52 133.193 506.058 124.652C514.596 116.111 525.473 110.294 537.316 107.938C549.158 105.581 561.433 106.79 572.588 111.413C583.743 116.035 593.278 123.863 599.986 133.907C606.694 143.95 610.274 155.758 610.274 167.837C610.274 175.858 608.695 183.8 605.627 191.209C602.559 198.619 598.062 205.352 592.394 211.023C586.725 216.694 579.995 221.193 572.588 224.262C565.181 227.331 557.243 228.911 549.226 228.911Z" fill="black"/>
<path d="M387.465 345.265C426.351 345.265 457.875 313.729 457.875 274.827C457.875 235.925 426.351 204.389 387.465 204.389C348.579 204.389 317.055 235.925 317.055 274.827C317.055 313.729 348.579 345.265 387.465 345.265Z" fill="#F2CC8F"/>
<path d="M427.509 253.546L406.427 275.003C406.39 275.039 406.361 275.081 406.34 275.129C406.32 275.176 406.31 275.227 406.31 275.278C406.31 275.329 406.32 275.38 406.34 275.427C406.361 275.475 406.39 275.517 406.427 275.553L421.219 291.288C421.573 291.645 421.814 292.098 421.911 292.591C422.008 293.084 421.958 293.595 421.766 294.059C421.574 294.524 421.249 294.921 420.832 295.202C420.416 295.482 419.925 295.633 419.423 295.636C418.747 295.634 418.099 295.366 417.62 294.889L402.905 279.21C402.83 279.136 402.729 279.095 402.623 279.095C402.518 279.095 402.417 279.136 402.342 279.21L398.756 282.832C397.288 284.334 395.535 285.527 393.6 286.341C391.665 287.156 389.586 287.575 387.486 287.574C385.347 287.564 383.231 287.128 381.262 286.291C379.293 285.454 377.511 284.232 376.019 282.698L372.575 279.175C372.499 279.101 372.398 279.059 372.293 279.059C372.187 279.059 372.086 279.101 372.011 279.175L357.332 294.818C357.096 295.055 356.815 295.243 356.506 295.371C356.197 295.499 355.866 295.565 355.532 295.565C355.198 295.565 354.867 295.499 354.558 295.371C354.249 295.243 353.969 295.055 353.732 294.818C353.495 294.583 353.307 294.302 353.178 293.993C353.049 293.684 352.983 293.353 352.983 293.018C352.983 292.683 353.049 292.352 353.178 292.043C353.307 291.734 353.495 291.453 353.732 291.218L368.468 275.518C368.534 275.441 368.57 275.344 368.57 275.243C368.57 275.142 368.534 275.045 368.468 274.968L347.386 253.511C347.332 253.456 347.263 253.419 347.187 253.404C347.112 253.389 347.034 253.397 346.963 253.426C346.892 253.456 346.831 253.505 346.789 253.57C346.746 253.634 346.724 253.709 346.724 253.786V296.721C346.729 298.381 347.391 299.971 348.564 301.144C349.737 302.318 351.327 302.98 352.986 302.985H421.923C423.582 302.98 425.172 302.318 426.345 301.144C427.518 299.971 428.18 298.381 428.185 296.721V253.821C428.189 253.741 428.168 253.662 428.124 253.595C428.081 253.527 428.018 253.475 427.944 253.445C427.87 253.415 427.788 253.408 427.711 253.426C427.633 253.445 427.562 253.486 427.509 253.546V253.546Z" fill="#7CB083"/>
<path d="M387.465 282.48C388.894 282.494 390.311 282.22 391.633 281.675C392.954 281.131 394.153 280.326 395.157 279.309L425.861 248.043C424.771 247.139 423.402 246.641 421.987 246.633H353C351.584 246.638 350.214 247.136 349.126 248.043L379.837 279.309C380.832 280.32 382.02 281.122 383.33 281.666C384.64 282.211 386.046 282.488 387.465 282.48V282.48Z" fill="#7CB083"/>
<path opacity="0.1" d="M386.578 204.396C372.643 204.389 359.02 208.516 347.431 216.257C335.842 223.997 326.809 235.002 321.473 247.88C316.137 260.757 314.74 274.928 317.456 288.601C320.173 302.273 326.882 314.833 336.735 324.69C346.588 334.547 359.142 341.259 372.809 343.977C386.476 346.694 400.642 345.296 413.514 339.958C426.386 334.62 437.387 325.583 445.124 313.989C452.861 302.396 456.987 288.767 456.98 274.827C456.971 256.15 449.551 238.241 436.35 225.035C423.149 211.828 405.247 204.405 386.578 204.396ZM386.578 335.9C374.503 335.9 362.7 332.319 352.661 325.608C342.622 318.897 334.797 309.358 330.176 298.199C325.556 287.039 324.347 274.759 326.702 262.912C329.058 251.065 334.872 240.183 343.41 231.642C351.948 223.1 362.825 217.284 374.668 214.927C386.51 212.571 398.785 213.78 409.94 218.402C421.095 223.025 430.63 230.853 437.338 240.896C444.046 250.94 447.626 262.748 447.626 274.827C447.626 291.025 441.194 306.559 429.746 318.012C418.297 329.466 402.769 335.9 386.578 335.9Z" fill="black"/>
<path d="M220.365 292.662C259.251 292.662 290.775 261.126 290.775 222.224C290.775 183.322 259.251 151.785 220.365 151.785C181.479 151.785 149.955 183.322 149.955 222.224C149.955 261.126 181.479 292.662 220.365 292.662Z" fill="#F2CC8F"/>
<path d="M220.365 188.519L192.296 253.306L194.916 255.928L220.372 244.695L245.829 255.928L248.449 253.306L220.365 188.519Z" fill="#7CB083"/>
<path opacity="0.1" d="M220.365 151.764C206.432 151.757 192.81 155.884 181.222 163.623C169.634 171.361 160.6 182.364 155.264 195.24C149.927 208.115 148.527 222.285 151.241 235.956C153.955 249.628 160.661 262.187 170.51 272.046C180.36 281.904 192.911 288.619 206.575 291.341C220.24 294.063 234.404 292.669 247.277 287.337C260.15 282.004 271.153 272.972 278.894 261.383C286.636 249.795 290.768 236.169 290.768 222.231C290.768 203.548 283.351 185.63 270.149 172.416C256.947 159.202 239.04 151.773 220.365 151.764V151.764ZM220.365 283.269C208.289 283.269 196.485 279.686 186.445 272.974C176.404 266.261 168.58 256.721 163.96 245.559C159.341 234.397 158.134 222.116 160.492 210.268C162.851 198.42 168.668 187.537 177.21 178.998C185.751 170.458 196.632 164.644 208.477 162.291C220.321 159.939 232.597 161.153 243.752 165.781C254.906 170.409 264.438 178.242 271.142 188.29C277.846 198.339 281.421 210.15 281.414 222.231C281.412 238.427 274.979 253.96 263.53 265.412C252.082 276.864 236.555 283.297 220.365 283.297V283.269Z" fill="black"/>
<path d="M555.706 310.934C555.068 309.374 554.413 307.819 553.741 306.269C553.188 304.756 552.375 303.352 551.339 302.119C550.946 301.675 550.466 301.315 549.93 301.062C549.34 300.844 548.72 300.72 548.092 300.695C547.134 300.574 546.167 300.548 545.204 300.618C544.831 300.505 544.408 300.357 543.992 300.188C546.077 299.64 547.93 298.437 549.279 296.756C550.628 295.075 551.402 293.005 551.487 290.851C551.487 290.71 551.487 290.562 551.487 290.421C551.493 289.103 551.238 287.796 550.739 286.575C550.24 285.355 549.505 284.245 548.577 283.308C547.649 282.372 546.545 281.628 545.33 281.118C544.114 280.608 542.81 280.343 541.492 280.337C539.636 280.334 537.817 280.854 536.244 281.838C534.167 281.367 531.991 281.614 530.072 282.539C528.153 283.465 526.604 285.014 525.679 286.933C524.512 288.05 523.59 289.397 522.971 290.889C522.353 292.381 522.052 293.986 522.086 295.601C522.086 295.749 522.086 295.904 522.086 296.044C522.269 301.52 525.805 305.91 530.271 306.354C529.794 306.568 529.356 306.861 528.975 307.22C527.608 308.538 527.383 310.631 527.235 312.534L527.13 313.943L524.763 314.789C524.688 314.815 524.621 314.862 524.571 314.925C524.52 314.987 524.488 315.061 524.477 315.141C524.466 315.22 524.477 315.3 524.509 315.374C524.541 315.447 524.592 315.51 524.657 315.557L526.918 317.17C526.918 317.304 526.918 317.438 526.918 317.572C526.918 317.706 526.918 317.875 526.96 318.03C526.574 318.37 526.275 318.798 526.087 319.277C525.867 320.017 525.797 320.793 525.883 321.56L525.967 323.526C525.956 325.006 526.158 326.48 526.566 327.902C526.862 328.776 528.144 330.883 529.067 330.897C528.214 334.773 527.989 342.947 527.989 342.947C527.883 343.053 528.179 343.151 528.693 343.236C529.2 347.126 530.856 358.034 533.793 362.833C534.255 364.397 534.625 365.988 534.899 367.596C534.899 367.596 535.737 377.962 536.843 381.041C537.787 383.663 538.533 390.132 538.738 392.006C538.546 392.055 538.372 392.156 538.234 392.298C538.096 392.44 538 392.617 537.956 392.809C537.399 394.486 533.793 397.037 533.793 397.037C532.687 397.59 531.644 398.258 530.68 399.032C529.546 400.053 529.588 400.976 534.624 400.399C544.345 399.278 546.007 396.171 546.007 396.171C546.007 396.171 545.852 395.649 545.62 394.973C545.323 393.92 544.894 392.909 544.345 391.964C544.204 391.83 544.063 392.055 543.894 392.408C543.16 387.911 542.938 383.347 543.232 378.801C543.232 378.801 543.506 374.037 542.119 370.676C541.81 368.916 541.81 367.115 542.119 365.355C542.675 363.115 539.9 352.185 539.9 352.185L538.308 344.138C538.525 344.413 538.677 344.733 538.752 345.075L538.794 345.237L538.836 345.47C538.852 345.552 538.891 345.628 538.949 345.688C540.034 350.198 543.006 362.692 543.006 364.524C543.006 366.765 545.782 372.367 545.782 372.367C545.782 372.367 546.887 381.612 548.831 385.248C550.311 388.018 550.346 392.076 550.275 393.866C550.275 393.866 549.944 396.171 549.388 396.727C548.946 397.277 548.592 397.893 548.338 398.552L548.275 398.686C548.275 398.686 547.444 400.37 548 400.652C550.117 401.483 552.407 401.771 554.664 401.491C554.664 401.491 555.777 400.081 555.777 399.532C555.754 399.196 555.711 398.862 555.65 398.531C555.446 397.206 555.065 395.121 555.058 395.099C555.291 394.197 554.354 391.689 554.354 391.689L554.072 383.846C554.588 378.536 553.924 373.177 552.128 368.153C552.128 368.153 550.719 363.115 551.022 361.712C551.325 360.31 550.466 345.463 550.466 345.463L550.381 345.251C550.306 344.201 550.334 343.146 550.466 342.101C550.74 338.74 549.634 331.736 549.353 331.461C549.123 330.708 548.99 329.929 548.958 329.143C549.022 328.558 549.212 326.845 549.472 324.717C552.211 324.624 554.943 324.388 557.657 324.013C557.92 324.013 558.172 323.912 558.362 323.731C558.473 323.562 558.53 323.362 558.524 323.16C558.848 318.939 557.305 314.838 555.706 310.934ZM550.121 319.82C550.409 317.812 550.719 315.867 551.029 314.422L551.071 314.549C551.605 316.001 552.052 317.484 552.41 318.988C551.67 319.327 550.905 319.605 550.121 319.82Z" fill="url(#paint0_linear_34_505)"/>
<path d="M528.545 342.503C528.545 342.503 530.208 357.463 533.807 363.277C534.27 364.822 534.639 366.394 534.913 367.984C534.913 367.984 535.744 378.23 536.85 381.274C537.956 384.318 538.787 392.633 538.787 392.633C538.787 392.633 542.661 397.058 544.049 393.465C543.177 388.716 542.898 383.878 543.218 379.061C543.218 379.061 543.492 374.354 542.112 371.028C541.803 369.289 541.803 367.51 542.112 365.771C542.661 363.552 539.893 352.756 539.893 352.756L537.681 341.954L528.545 342.503Z" fill="#BE6F72"/>
<path d="M545.986 396.234C545.986 396.234 544.323 399.278 534.638 400.384C529.609 400.955 529.574 400.046 530.708 399.031C531.669 398.267 532.708 397.606 533.807 397.058C533.807 397.058 537.406 394.571 537.956 392.908C538.505 391.245 540.449 392.633 540.449 392.633C543.217 396.784 543.774 391.52 544.323 392.076C544.875 393.006 545.303 394.003 545.598 395.043C545.831 395.713 545.986 396.234 545.986 396.234Z" fill="#FF6F61"/>
<path opacity="0.1" d="M545.986 396.234C545.986 396.234 544.323 399.278 534.638 400.384C529.609 400.955 529.574 400.046 530.708 399.031C531.497 399.532 533.088 399.736 536.293 398.447C540.907 396.558 544.253 395.466 545.598 395.043C545.831 395.712 545.986 396.234 545.986 396.234Z" fill="black"/>
<path opacity="0.1" d="M543.217 379.061C543.217 379.061 543.492 374.354 542.112 371.028C541.803 369.289 541.803 367.51 542.112 365.771C542.661 363.552 539.893 352.756 539.893 352.756L537.681 341.954L535.765 342.066L537.956 352.756C537.956 352.756 540.724 363.552 540.175 365.771C539.866 367.51 539.866 369.289 540.175 371.028C541.583 374.354 541.28 379.061 541.28 379.061C540.961 383.878 541.24 388.716 542.112 393.465C541.962 393.916 541.682 394.313 541.309 394.606C542.337 395.071 543.422 395.05 544.049 393.465C543.177 388.716 542.898 383.878 543.217 379.061V379.061Z" fill="black"/>
<path d="M541.414 281.719C539.567 281.715 537.756 282.23 536.188 283.205C534.116 282.727 531.944 282.965 530.026 283.88C528.107 284.795 526.555 286.333 525.622 288.244C524.46 289.343 523.541 290.673 522.923 292.149C522.306 293.625 522.004 295.213 522.037 296.813C522.037 302.704 526.002 307.474 530.891 307.474C534.413 307.474 537.498 304.966 538.913 301.337C539.727 301.552 540.565 301.661 541.407 301.661C544.05 301.661 546.586 300.61 548.455 298.74C550.324 296.87 551.374 294.334 551.374 291.69C551.374 289.045 550.324 286.509 548.455 284.639C546.586 282.769 544.05 281.719 541.407 281.719H541.414Z" fill="#3F3D56"/>
<path d="M549.585 343.891L550.416 346.104C550.416 346.104 551.248 360.782 550.966 362.17C550.684 363.559 552.079 368.512 552.079 368.512C553.869 373.472 554.531 378.768 554.016 384.015L554.291 391.766C554.291 391.766 555.396 394.811 554.847 395.367C554.298 395.924 550.121 394.874 550.121 394.874C550.121 394.874 550.677 389.06 548.712 385.46C546.747 381.859 545.669 372.719 545.669 372.719C545.669 372.719 542.901 367.181 542.901 364.968C542.901 362.755 538.47 344.751 538.47 344.751L549.585 343.891Z" fill="#BE6F72"/>
<path d="M527.989 343.617C527.989 343.617 528.271 333.645 529.398 330.601C529.971 329.179 530.385 327.697 530.63 326.183C530.63 326.183 547.388 329.213 548.775 328.107C548.775 328.107 549.05 331.982 549.332 332.257C549.613 332.532 550.74 339.459 550.438 342.785C550.135 346.111 550.438 346.104 550.438 346.104C550.438 346.104 539.083 347.767 538.808 346.104C538.534 344.441 537.702 344.448 537.702 344.448C537.702 344.448 527.44 344.138 527.989 343.617Z" fill="#3F3D56"/>
<g opacity="0.1">
<path opacity="0.1" d="M537.125 343.617C537.125 343.617 530.123 343.426 528.01 343.046C528.01 343.405 528.01 343.617 528.01 343.617C527.461 344.166 537.702 344.448 537.702 344.448C537.842 344.461 537.974 344.515 538.083 344.603C537.709 343.616 537.125 343.617 537.125 343.617Z" fill="black"/>
<path opacity="0.1" d="M549.311 332.257C549.029 331.982 548.754 328.107 548.754 328.107C548.611 328.196 548.45 328.254 548.282 328.276C548.381 329.446 548.571 331.243 548.754 331.426C548.937 331.609 550.163 338.627 549.86 341.954C549.557 345.28 549.86 345.272 549.86 345.272C549.86 345.272 540.879 346.59 538.703 345.709C538.703 345.829 538.766 345.963 538.787 346.104C539.062 347.767 550.417 346.104 550.417 346.104C550.417 346.104 550.135 346.104 550.417 342.785C550.698 339.466 549.585 332.539 549.311 332.257Z" fill="black"/>
</g>
<path d="M540.189 299.166C540.427 299.699 540.789 300.168 541.245 300.533C541.539 300.751 541.878 300.898 542.238 300.963C541.618 301.322 540.942 301.59 540.322 301.95C539.347 302.605 538.407 303.311 537.505 304.064C536.582 304.806 535.453 305.244 534.272 305.318C534.686 304.759 534.946 304.1 535.025 303.409C535.105 302.717 535 302.017 534.723 301.379C534.469 300.96 534.301 300.496 534.229 300.012C534.229 299.216 534.934 298.602 535.589 298.18C536.117 297.82 536.66 297.475 537.209 297.13C537.639 296.862 538.287 296.298 538.829 296.319C539.371 296.34 539.435 296.82 539.533 297.313C539.673 297.956 539.893 298.578 540.189 299.166V299.166Z" fill="#BE6F72"/>
<path opacity="0.1" d="M540.189 299.166C540.427 299.699 540.789 300.168 541.245 300.533C541.539 300.751 541.878 300.898 542.238 300.963C541.618 301.322 540.942 301.59 540.322 301.95C539.347 302.605 538.407 303.311 537.505 304.064C536.582 304.806 535.453 305.244 534.272 305.318C534.686 304.759 534.946 304.1 535.025 303.409C535.105 302.717 535 302.017 534.723 301.379C534.469 300.96 534.301 300.496 534.229 300.012C534.229 299.216 534.934 298.602 535.589 298.18C536.117 297.82 536.66 297.475 537.209 297.13C537.639 296.862 538.287 296.298 538.829 296.319C539.371 296.34 539.435 296.82 539.533 297.313C539.673 297.956 539.893 298.578 540.189 299.166V299.166Z" fill="black"/>
<path d="M546.676 315.507C550.193 315.507 553.044 312.655 553.044 309.137C553.044 305.619 550.193 302.767 546.676 302.767C543.159 302.767 540.309 305.619 540.309 309.137C540.309 312.655 543.159 315.507 546.676 315.507Z" fill="#BE6F72"/>
<path d="M555.671 399.553C555.671 400.11 554.565 401.491 554.565 401.491C552.316 401.767 550.034 401.481 547.923 400.659C547.366 400.384 548.198 398.721 548.198 398.721L548.261 398.588C548.515 397.935 548.869 397.327 549.31 396.784C549.86 396.234 550.191 393.965 550.191 393.965C551.91 391.146 554.96 395.184 554.96 395.184C554.96 395.184 555.347 397.298 555.551 398.58C555.622 399.039 555.671 399.412 555.671 399.553Z" fill="#FF6F61"/>
<path opacity="0.1" d="M555.671 399.553C555.671 400.11 554.565 401.491 554.565 401.491C552.316 401.767 550.034 401.481 547.923 400.659C547.366 400.384 548.198 398.721 548.198 398.721L548.261 398.588C550.147 399.464 552.212 399.889 554.29 399.828L555.551 398.566C555.622 399.039 555.671 399.412 555.671 399.553Z" fill="black"/>
<path d="M533.941 302.069C537.38 302.069 540.168 299.28 540.168 295.84C540.168 292.4 537.38 289.611 533.941 289.611C530.502 289.611 527.714 292.4 527.714 295.84C527.714 299.28 530.502 302.069 533.941 302.069Z" fill="#BE6F72"/>
<path d="M528.918 308.299C527.552 309.602 527.327 311.667 527.186 313.548L526.974 316.304C526.898 317.046 526.882 317.793 526.925 318.537C526.925 318.995 527.038 319.461 527.08 319.947C527.122 320.433 527.136 321.046 527.143 321.603V325.676C527.077 326.516 527.232 327.359 527.594 328.121C527.788 328.489 528.112 328.772 528.503 328.912C528.894 329.053 529.324 329.042 529.707 328.882C530.145 328.544 530.453 328.067 530.581 327.529C531.268 325.877 531.741 324.143 531.99 322.371C532.046 321.758 532.053 321.145 532.109 320.532C532.166 319.919 532.271 319.277 532.363 318.657C532.757 316.064 532.933 313.443 533.11 310.828C533.159 310.053 533.856 307.002 532.842 306.664C532.349 306.502 531.328 307.009 530.856 307.178C530.141 307.417 529.482 307.798 528.918 308.299V308.299Z" fill="#BE6F72"/>
<path opacity="0.1" d="M528.918 308.299C527.552 309.602 527.327 311.667 527.186 313.548L526.974 316.304C526.898 317.046 526.882 317.793 526.925 318.537C526.925 318.995 527.038 319.461 527.08 319.947C527.122 320.433 527.136 321.046 527.143 321.603V325.676C527.077 326.516 527.232 327.359 527.594 328.121C527.788 328.489 528.112 328.772 528.503 328.912C528.894 329.053 529.324 329.042 529.707 328.882C530.145 328.544 530.453 328.067 530.581 327.529C531.268 325.877 531.741 324.143 531.99 322.371C532.046 321.758 532.053 321.145 532.109 320.532C532.166 319.919 532.271 319.277 532.363 318.657C532.757 316.064 532.933 313.443 533.11 310.828C533.159 310.053 533.856 307.002 532.842 306.664C532.349 306.502 531.328 307.009 530.856 307.178C530.141 307.417 529.482 307.798 528.918 308.299V308.299Z" fill="black"/>
<path d="M541.83 299.857C541.83 299.857 537.125 303.458 534.356 304.289C534.356 304.289 532.715 306.163 532.433 306.614C532.152 307.065 531.588 312.04 531.025 313.154C530.461 314.267 529.088 316.755 531.025 319.242C531.025 319.242 531.574 321.737 531.299 322.568C531.025 323.4 530.017 326.444 530.933 326.585C531.849 326.726 534.624 328.656 537.111 328.107C539.597 327.557 548.881 330.221 548.881 330.221C548.881 330.221 550.416 315.951 551.529 313.429L549.036 312.597C549.036 312.597 542.119 308.447 546.267 302.076C546.26 302.076 542.372 301.245 541.83 299.857Z" fill="#FF6F61"/>
<path d="M524.65 316.536L530.37 320.588C530.442 320.641 530.53 320.67 530.62 320.67C530.71 320.67 530.797 320.641 530.87 320.588L532.419 319.425C532.467 319.384 532.505 319.333 532.531 319.276C532.558 319.219 532.571 319.157 532.571 319.094C532.571 319.031 532.558 318.969 532.531 318.912C532.505 318.855 532.467 318.804 532.419 318.763L528.017 314.852C527.96 314.8 527.89 314.765 527.814 314.75C527.738 314.735 527.66 314.741 527.587 314.767L524.763 315.782C524.688 315.808 524.623 315.853 524.572 315.914C524.522 315.974 524.489 316.047 524.478 316.125C524.466 316.203 524.476 316.282 524.507 316.355C524.537 316.427 524.587 316.49 524.65 316.536V316.536Z" fill="#3F3D56"/>
<path d="M526.573 328.741C526.169 327.337 525.967 325.882 525.974 324.421L525.89 322.469C525.805 321.712 525.874 320.945 526.094 320.215C526.311 319.714 526.637 319.268 527.047 318.908C527.458 318.549 527.943 318.285 528.468 318.136C529.519 317.844 530.618 317.765 531.701 317.903C531.847 317.904 531.99 317.943 532.116 318.016C532.227 318.118 532.305 318.25 532.342 318.396C532.502 318.709 532.596 319.051 532.618 319.402C532.639 319.752 532.589 320.103 532.469 320.433C532.305 320.702 532.084 320.93 531.821 321.102C531.053 321.652 530.158 322.019 529.433 322.617C529.285 322.717 529.172 322.86 529.109 323.026C529.074 323.172 529.074 323.324 529.109 323.47C529.199 323.858 529.321 324.237 529.475 324.605C529.537 324.789 529.646 324.954 529.792 325.084C529.926 325.197 530.102 325.239 530.243 325.345C530.546 325.591 531.18 325.915 531.144 326.303C531.039 327.712 530.193 329.291 529.862 330.686C529.228 333.413 526.981 329.932 526.573 328.741Z" fill="#BE6F72"/>
<g opacity="0.1">
<path opacity="0.1" d="M535.469 328.107H535.314C535.912 328.223 536.527 328.223 537.125 328.107H537.301C536.694 328.018 536.077 328.018 535.469 328.107Z" fill="black"/>
<path opacity="0.1" d="M550.001 313.013C549.008 315.247 547.542 327.346 547.282 329.749C548.254 330.002 548.895 330.186 548.895 330.186C548.895 330.186 550.416 315.951 551.529 313.429L550.001 313.013Z" fill="black"/>
</g>
<path d="M546.894 309.334C546.946 309.613 547.053 309.878 547.209 310.114C547.365 310.35 547.567 310.552 547.803 310.709C548.391 311.202 548.931 311.749 549.416 312.343C550.112 313.323 550.651 314.404 551.015 315.55C551.543 316.984 551.988 318.447 552.346 319.933C548.824 321.568 544.823 321.49 541.076 322.568C539.463 322.994 537.999 323.86 536.85 325.07C536.277 325.678 535.841 326.402 535.572 327.194C535.304 327.985 535.209 328.826 535.293 329.657C535.299 329.754 535.328 329.849 535.378 329.932C535.439 330.001 535.515 330.055 535.601 330.089C535.686 330.123 535.779 330.137 535.871 330.129C536.807 330.128 537.716 329.816 538.456 329.241C539.187 328.67 539.851 328.017 540.435 327.296C540.798 326.824 541.286 326.462 541.844 326.254C543.879 325.633 546.07 325.669 548.183 325.633C551.344 325.572 554.498 325.322 557.629 324.886C557.743 324.9 557.859 324.888 557.968 324.85C558.077 324.812 558.175 324.75 558.257 324.669C558.338 324.587 558.4 324.489 558.438 324.38C558.475 324.271 558.488 324.155 558.474 324.041C558.784 319.883 557.242 315.824 555.657 311.97C555.023 310.424 554.37 308.886 553.699 307.354C553.146 305.858 552.335 304.47 551.304 303.253C550.912 302.811 550.432 302.456 549.895 302.21C549.289 301.992 548.651 301.873 548.007 301.858C546.982 301.72 545.944 301.701 544.915 301.802C544.751 302.321 544.651 302.858 544.619 303.401C544.675 305.304 545.507 307.087 546.324 308.806C546.429 309.067 546.732 309.081 546.894 309.334Z" fill="#BE6F72"/>
<path opacity="0.1" d="M535.617 312.9C535.141 313.716 534.897 314.647 534.913 315.592C534.915 315.965 534.974 316.336 535.089 316.691C535.281 317.189 535.583 317.638 535.972 318.004C536.361 318.37 536.827 318.644 537.336 318.805" stroke="black" stroke-miterlimit="10"/>
<path d="M539.202 289.752C538.855 289.751 538.511 289.805 538.181 289.914C537.258 288.505 535.089 287.532 532.546 287.532C529.179 287.532 526.453 289.273 526.453 291.415C526.453 293.557 529.179 295.29 532.546 295.29C533.807 295.304 535.055 295.04 536.202 294.515C536.46 295.049 536.856 295.504 537.349 295.833C537.842 296.162 538.415 296.352 539.006 296.385C539.598 296.417 540.188 296.291 540.714 296.018C541.241 295.745 541.684 295.337 541.999 294.834C542.314 294.332 542.489 293.754 542.505 293.162C542.521 292.569 542.378 291.983 542.092 291.464C541.805 290.945 541.384 290.513 540.873 290.212C540.363 289.911 539.781 289.752 539.188 289.752H539.202Z" fill="#3F3D56"/>
<path opacity="0.1" d="M539.478 295.565C538.853 295.565 538.241 295.389 537.713 295.056C537.184 294.723 536.761 294.247 536.491 293.684C535.344 294.208 534.096 294.473 532.835 294.459C529.475 294.459 526.749 292.725 526.749 290.583C526.739 290.454 526.739 290.325 526.749 290.196C526.549 290.571 526.443 290.989 526.439 291.415C526.439 293.529 529.165 295.29 532.532 295.29C533.793 295.304 535.041 295.04 536.188 294.515C536.491 295.145 536.986 295.662 537.6 295.994C538.214 296.326 538.918 296.455 539.61 296.364C540.302 296.273 540.948 295.965 541.456 295.485C541.963 295.005 542.306 294.377 542.436 293.691C542.168 294.249 541.748 294.721 541.225 295.053C540.702 295.384 540.097 295.562 539.478 295.565V295.565Z" fill="black"/>
<path opacity="0.1" d="M525.629 289.879C526.562 287.968 528.114 286.429 530.033 285.514C531.952 284.599 534.124 284.362 536.195 284.84C537.644 283.945 539.299 283.437 541 283.364C542.702 283.291 544.394 283.655 545.915 284.423C547.435 285.191 548.734 286.336 549.686 287.748C550.638 289.161 551.212 290.795 551.353 292.493C551.353 292.218 551.353 291.943 551.353 291.661C551.349 289.889 550.873 288.15 549.974 286.623C549.074 285.096 547.784 283.837 546.235 282.976C544.687 282.114 542.937 281.681 541.166 281.722C539.395 281.762 537.667 282.274 536.16 283.205C534.089 282.727 531.917 282.965 529.998 283.88C528.079 284.795 526.527 286.333 525.594 288.244C524.432 289.343 523.513 290.673 522.896 292.149C522.278 293.625 521.976 295.213 522.009 296.813C522.009 297.094 522.009 297.369 522.009 297.644C522.147 294.68 523.448 291.89 525.629 289.879Z" fill="black"/>
<path d="M589.136 291.993C590.975 288.589 588.89 284.41 586.488 281.373C584.086 278.336 581.17 275.179 581.233 271.304C581.317 265.744 587.22 262.46 591.94 259.508C595.438 257.314 598.663 254.712 601.547 251.756C602.759 250.624 603.761 249.285 604.506 247.803C605.478 245.626 605.45 243.152 605.393 240.756C605.187 232.817 604.795 224.887 604.217 216.967" stroke="#3F3D56" stroke-width="4" stroke-miterlimit="10"/>
<path d="M613.177 216.544C613.109 215.092 612.678 213.68 611.922 212.439C611.166 211.198 610.11 210.167 608.852 209.441L606.908 213.281L606.964 208.631C606.039 208.355 605.075 208.238 604.111 208.285C602.398 208.365 600.747 208.952 599.367 209.97C597.987 210.989 596.94 212.394 596.358 214.008C595.777 215.622 595.686 217.373 596.099 219.038C596.512 220.703 597.409 222.209 598.677 223.364C599.945 224.519 601.527 225.272 603.223 225.528C604.919 225.784 606.652 225.53 608.204 224.8C609.756 224.07 611.057 222.896 611.942 221.427C612.827 219.957 613.257 218.258 613.177 216.544V216.544Z" fill="#7CB083"/>
<path d="M597.715 275.264C596.806 277.034 595.316 278.437 593.495 279.238C591.674 280.039 589.633 280.19 587.715 279.664C585.796 279.139 584.117 277.97 582.958 276.353C581.798 274.736 581.23 272.769 581.348 270.783C581.466 268.796 582.264 266.911 583.606 265.443C584.949 263.974 586.755 263.012 588.722 262.718C590.69 262.424 592.698 262.816 594.411 263.827C596.124 264.839 597.437 266.409 598.131 268.274L592.714 272.685L598.673 271.275C598.679 272.663 598.351 274.031 597.715 275.264V275.264Z" fill="#7CB083"/>
<path d="M593.433 258.415C591.304 258.518 589.212 257.832 587.556 256.49C585.901 255.147 584.797 253.242 584.457 251.137C584.116 249.033 584.562 246.876 585.71 245.08C586.857 243.283 588.626 241.972 590.679 241.398L590.636 244.97L592.601 241.088C594.899 240.982 597.144 241.794 598.844 243.344C600.544 244.893 601.559 247.055 601.667 249.353C601.721 250.491 601.55 251.629 601.164 252.7C600.778 253.772 600.185 254.758 599.418 255.6C598.652 256.442 597.727 257.125 596.696 257.609C595.665 258.094 594.549 258.37 593.412 258.422L593.433 258.415Z" fill="#7CB083"/>
<path d="M614.48 244.406C613.135 244.475 611.794 244.229 610.561 243.689C609.328 243.149 608.238 242.33 607.376 241.295C606.515 240.26 605.906 239.039 605.598 237.729C605.29 236.418 605.291 235.053 605.601 233.743C605.912 232.433 606.523 231.213 607.386 230.18C608.249 229.147 609.341 228.329 610.575 227.791C611.809 227.253 613.151 227.01 614.495 227.081C615.839 227.152 617.148 227.535 618.318 228.199L616.783 232.427L619.939 229.397C620.779 230.161 621.461 231.083 621.945 232.111C622.428 233.139 622.704 234.252 622.756 235.387C622.798 236.189 622.725 236.994 622.538 237.776C622.096 239.606 621.071 241.243 619.617 242.439C618.163 243.635 616.36 244.326 614.48 244.406V244.406Z" fill="#7CB083"/>
<path opacity="0.1" d="M612.014 218.855C610.014 219.081 608.063 219.701 606.055 219.828C604.048 219.955 601.829 219.468 600.568 217.904C599.979 216.997 599.445 216.056 598.969 215.085C598.42 214.232 597.67 213.526 596.786 213.028C596.224 214.127 595.903 215.334 595.845 216.568C595.786 217.802 595.992 219.034 596.448 220.182C596.905 221.329 597.6 222.366 598.489 223.223C599.378 224.08 600.44 224.737 601.604 225.151C602.767 225.564 604.005 225.724 605.235 225.62C606.466 225.517 607.659 225.151 608.737 224.548C609.815 223.946 610.751 223.12 611.484 222.126C612.217 221.132 612.729 219.993 612.986 218.785C612.662 218.799 612.338 218.82 612.014 218.855Z" fill="black"/>
<path opacity="0.1" d="M614.48 244.406C612.985 244.475 611.498 244.156 610.163 243.481C608.829 242.805 607.691 241.796 606.861 240.551C606.031 239.306 605.537 237.867 605.426 236.374C605.316 234.882 605.593 233.386 606.231 232.033C606.92 232.494 607.514 233.085 607.978 233.773C608.493 234.763 609.067 235.72 609.697 236.641C611.042 238.234 613.353 238.755 615.445 238.656C617.537 238.558 619.558 237.952 621.643 237.776C621.932 237.776 622.228 237.726 622.517 237.719C622.086 239.557 621.069 241.204 619.619 242.411C618.168 243.618 616.364 244.318 614.48 244.406V244.406Z" fill="black"/>
<path opacity="0.1" d="M593.433 258.415C591.951 258.488 590.475 258.178 589.147 257.516C587.818 256.855 586.682 255.863 585.847 254.635C585.013 253.408 584.507 251.987 584.378 250.508C584.25 249.029 584.503 247.542 585.114 246.189C585.825 246.662 586.445 247.259 586.946 247.951C587.65 248.902 588.037 250.002 588.826 250.875C590.291 252.51 592.75 253.081 594.969 253.032C597.187 252.982 599.195 252.454 601.308 252.292C600.785 253.999 599.748 255.504 598.339 256.6C596.929 257.696 595.216 258.33 593.433 258.415V258.415Z" fill="black"/>
<path opacity="0.1" d="M597.716 275.264C596.681 277.199 594.953 278.671 592.878 279.383C590.803 280.095 588.535 279.995 586.531 279.102C584.527 278.209 582.936 276.59 582.077 274.57C581.218 272.551 581.156 270.281 581.902 268.217C582.618 268.684 583.259 269.257 583.804 269.915C584.635 270.923 585.178 272.029 586.128 273.002C587.903 274.742 590.763 275.454 593.313 275.525C594.784 275.523 596.254 275.436 597.716 275.264V275.264Z" fill="black"/>
<path d="M701.133 399.102C702.971 395.698 700.886 391.52 698.484 388.483C696.082 385.446 693.166 382.289 693.23 378.413C693.314 372.853 699.217 369.569 703.936 366.617C707.435 364.423 710.66 361.821 713.544 358.866C714.756 357.733 715.757 356.394 716.502 354.912C717.474 352.735 717.446 350.261 717.39 347.866C717.188 339.926 716.796 331.997 716.213 324.076" stroke="#3F3D56" stroke-width="4" stroke-miterlimit="10"/>
<path d="M725.173 323.653C725.106 322.201 724.675 320.79 723.919 319.548C723.163 318.307 722.107 317.276 720.848 316.55L718.904 320.391L718.96 315.74C718.047 315.468 717.095 315.351 716.143 315.395C714.43 315.475 712.779 316.061 711.399 317.08C710.019 318.098 708.972 319.504 708.39 321.118C707.808 322.732 707.718 324.482 708.131 326.147C708.544 327.813 709.441 329.318 710.709 330.473C711.977 331.628 713.559 332.381 715.255 332.637C716.951 332.893 718.684 332.64 720.236 331.91C721.788 331.18 723.089 330.006 723.974 328.536C724.859 327.066 725.289 325.367 725.208 323.653H725.173Z" fill="#7CB083"/>
<path d="M709.712 382.373C708.802 384.143 707.312 385.546 705.492 386.347C703.671 387.148 701.63 387.299 699.711 386.774C697.793 386.248 696.113 385.079 694.954 383.462C693.795 381.845 693.227 379.878 693.345 377.892C693.463 375.905 694.26 374.02 695.603 372.552C696.945 371.084 698.752 370.122 700.719 369.828C702.686 369.534 704.695 369.925 706.408 370.936C708.121 371.948 709.434 373.518 710.127 375.383L704.711 379.794L710.67 378.385C710.676 379.772 710.347 381.14 709.712 382.373V382.373Z" fill="#7CB083"/>
<path d="M705.429 365.525C703.301 365.627 701.209 364.942 699.553 363.599C697.897 362.257 696.794 360.351 696.453 358.247C696.113 356.142 696.559 353.986 697.706 352.189C698.854 350.392 700.623 349.082 702.675 348.507L702.633 352.08L704.598 348.197C706.896 348.092 709.141 348.903 710.841 350.453C712.54 352.003 713.556 354.164 713.663 356.463C713.717 357.601 713.547 358.738 713.161 359.81C712.775 360.882 712.182 361.867 711.415 362.709C710.648 363.552 709.723 364.234 708.692 364.719C707.662 365.203 706.546 365.479 705.408 365.532L705.429 365.525Z" fill="#7CB083"/>
<path d="M726.476 351.516C725.132 351.584 723.79 351.339 722.557 350.799C721.324 350.259 720.234 349.439 719.373 348.404C718.511 347.37 717.902 346.149 717.594 344.838C717.286 343.527 717.288 342.163 717.598 340.853C717.908 339.542 718.519 338.322 719.382 337.289C720.246 336.256 721.337 335.438 722.571 334.9C723.805 334.362 725.147 334.119 726.491 334.19C727.835 334.261 729.145 334.644 730.315 335.308L728.78 339.536L731.935 336.506C732.776 337.27 733.458 338.192 733.941 339.22C734.425 340.248 734.701 341.361 734.753 342.496C734.795 343.299 734.721 344.103 734.534 344.885C734.093 346.715 733.068 348.352 731.614 349.549C730.16 350.745 728.357 351.435 726.476 351.516V351.516Z" fill="#7CB083"/>
<path opacity="0.1" d="M724.01 325.965C722.01 326.19 720.059 326.81 718.051 326.937C716.044 327.064 713.825 326.578 712.564 325.013C711.975 324.107 711.441 323.165 710.965 322.195C710.416 321.341 709.666 320.635 708.782 320.137C708.22 321.237 707.899 322.444 707.841 323.677C707.783 324.911 707.988 326.143 708.444 327.291C708.901 328.439 709.596 329.476 710.485 330.333C711.374 331.19 712.436 331.847 713.6 332.26C714.763 332.674 716.001 332.834 717.231 332.73C718.462 332.626 719.655 332.26 720.733 331.658C721.811 331.055 722.747 330.229 723.48 329.235C724.213 328.241 724.725 327.102 724.982 325.894C724.658 325.908 724.334 325.929 724.01 325.965Z" fill="black"/>
<path opacity="0.1" d="M726.476 351.516C724.982 351.585 723.495 351.266 722.16 350.59C720.825 349.915 719.687 348.905 718.858 347.66C718.028 346.415 717.533 344.976 717.423 343.484C717.313 341.991 717.59 340.496 718.228 339.142C718.917 339.604 719.51 340.195 719.975 340.882C720.489 341.872 721.063 342.83 721.693 343.75C723.039 345.343 725.349 345.864 727.441 345.766C729.533 345.667 731.555 345.061 733.64 344.885C733.928 344.885 734.224 344.836 734.513 344.829C734.083 346.666 733.065 348.313 731.615 349.52C730.165 350.727 728.36 351.428 726.476 351.516Z" fill="black"/>
<path opacity="0.1" d="M705.429 365.525C703.947 365.597 702.471 365.288 701.143 364.626C699.815 363.964 698.679 362.972 697.844 361.745C697.009 360.518 696.503 359.096 696.374 357.617C696.246 356.139 696.499 354.651 697.11 353.299C697.821 353.772 698.441 354.368 698.942 355.06C699.646 356.012 700.033 357.111 700.822 357.985C702.288 359.62 704.746 360.19 706.965 360.141C709.183 360.092 711.191 359.563 713.304 359.401C712.781 361.109 711.744 362.613 710.335 363.709C708.925 364.805 707.212 365.439 705.429 365.525Z" fill="black"/>
<path opacity="0.1" d="M709.712 382.373C708.677 384.309 706.949 385.78 704.874 386.493C702.799 387.205 700.531 387.104 698.527 386.211C696.523 385.318 694.932 383.699 694.073 381.68C693.214 379.66 693.152 377.39 693.898 375.327C694.614 375.794 695.255 376.366 695.8 377.025C696.631 378.032 697.209 379.139 698.125 380.111C699.9 381.852 702.759 382.563 705.309 382.634C706.78 382.632 708.25 382.545 709.712 382.373V382.373Z" fill="black"/>
<path d="M336.693 299.681C336.702 298.6 336.458 297.532 335.98 296.562C335.501 295.593 334.803 294.75 333.939 294.1C333.929 292.189 333.244 290.344 332.005 288.889C330.767 287.435 329.054 286.465 327.17 286.151C326.879 284.762 326.228 283.474 325.282 282.417C324.336 281.359 323.129 280.569 321.782 280.126V280.126C321.455 280.024 321.12 279.946 320.781 279.894H320.683H320.507H320.366H320.211H320.021H319.591C317.719 279.937 315.923 280.641 314.521 281.882C313.118 283.122 312.2 284.819 311.927 286.672C309.455 286.102 307.194 286.842 306.778 288.406C306.674 288.821 306.699 289.259 306.849 289.66C307.271 290.872 308.645 292.035 310.483 292.606L310.723 292.676L311.082 292.768H311.16C310.767 293.603 310.565 294.515 310.568 295.438C310.562 296.571 310.869 297.684 311.454 298.653C312.04 299.623 312.881 300.413 313.886 300.935L313.724 301.034C313.495 301.242 313.312 301.497 313.188 301.78C312.744 302.567 312.396 303.405 312.153 304.275C311.977 305.022 311.949 305.797 311.73 306.537C311.322 307.897 310.279 309.046 310.159 310.462C310.103 311.096 310.209 311.871 309.758 312.28C309.647 312.376 309.527 312.461 309.399 312.534C309.086 312.754 308.821 313.035 308.617 313.358C308.482 313.652 308.296 313.919 308.067 314.147C307.659 314.45 306.99 314.422 306.793 314.894C306.595 315.366 307.109 315.923 306.99 316.438C306.87 316.952 306.433 317.051 306.116 317.339C305.748 317.736 305.488 318.222 305.363 318.749C304.696 318.876 304.01 318.855 303.352 318.687C302.695 318.519 302.083 318.208 301.559 317.776C301.739 318.231 301.871 318.704 301.953 319.186C301.34 318.718 300.645 318.369 299.904 318.157C299.069 317.777 298.325 317.225 297.72 316.536L298.889 316.374L293.726 308.489L292.198 308.172L293.564 310.8C293.45 310.852 293.349 310.929 293.269 311.026C293.188 311.122 293.13 311.235 293.099 311.357C293.027 311.649 293.01 311.953 293.05 312.252C293.12 312.964 293.238 313.67 293.402 314.366L293.797 316.212C293.832 316.381 293.874 316.557 293.924 316.726C293.408 316.701 292.892 316.758 292.395 316.896C291.371 316.515 290.304 316.261 289.218 316.142C288.986 316.094 288.746 316.094 288.514 316.142C288.251 316.266 288.021 316.452 287.845 316.684C286.955 317.716 286.165 318.83 285.485 320.01C282.668 324.844 278.998 329.065 275.525 333.434C273.13 334.407 270.714 335.33 268.298 336.253L263.1 338.24C262.086 338.7 260.987 338.94 259.874 338.945C259.381 338.945 258.768 338.839 258.465 339.262C258.329 339.482 258.223 339.719 258.148 339.966L257.613 340.023C257.366 339.177 256.941 338.393 256.366 337.726C256.239 337.747 256.12 337.8 256.018 337.878C255.916 337.957 255.835 338.059 255.781 338.176C255.655 338.409 255.577 338.663 255.429 338.881C255.154 339.29 254.668 339.487 254.323 339.832C253.978 340.178 253.76 340.713 253.379 341.066C252.861 341.449 252.252 341.692 251.611 341.77C250.646 341.996 249.715 342.349 248.843 342.82C248.524 343.02 248.181 343.179 247.822 343.292C247.425 343.37 247.019 343.384 246.617 343.335L243.87 343.13C243.624 343.1 243.373 343.111 243.131 343.166C242.855 343.278 242.622 343.475 242.465 343.728C242.308 343.981 242.235 344.278 242.257 344.575C242.293 344.873 242.388 345.162 242.539 345.422C242.689 345.682 242.89 345.91 243.131 346.09C243.606 346.441 244.134 346.714 244.694 346.9C247.072 347.826 249.522 348.552 252.02 349.071V349.627C253.768 350.509 255.698 350.967 257.655 350.966C257.8 350.976 257.945 350.949 258.078 350.889C258.258 350.754 258.383 350.559 258.43 350.339C259.014 348.591 259.383 346.779 259.529 344.941V344.941C259.872 344.918 260.209 344.832 260.522 344.688C261.466 344.427 262.41 345.075 263.389 345.181C264.593 345.315 265.706 344.61 266.847 344.18L267.34 344.018C267.015 344.436 266.631 344.804 266.199 345.11C265.727 345.449 265.199 345.702 264.741 346.055C264.353 346.406 263.939 346.726 263.501 347.013C263.193 347.156 262.875 347.278 262.55 347.379C262.07 347.558 261.614 347.795 261.191 348.084C260.816 348.307 260.5 348.617 260.268 348.986C260.153 349.175 260.085 349.389 260.071 349.611C260.058 349.832 260.099 350.053 260.191 350.254C260.288 350.419 260.42 350.561 260.576 350.67C260.733 350.779 260.911 350.854 261.099 350.889C261.471 350.945 261.848 350.945 262.219 350.889C263.713 350.776 265.199 350.642 266.685 350.508C267.313 350.468 267.938 350.379 268.552 350.24C268.876 350.163 269.2 350.057 269.524 349.966C270.08 349.825 270.649 349.74 271.221 349.712C271.387 349.699 271.554 349.716 271.714 349.761C272.06 349.874 272.306 350.226 272.658 350.297C272.897 350.327 273.14 350.295 273.363 350.205C274.448 349.971 275.556 349.853 276.666 349.853C277.152 349.853 277.723 349.733 277.948 349.282C278.174 348.831 277.765 348.105 277.582 347.506C277.488 347.123 277.436 346.731 277.427 346.337C277.342 345.366 277.064 344.422 276.61 343.56C276.365 343.158 276.16 342.733 275.997 342.292C278.127 341.482 280.165 340.448 282.076 339.205C283.123 338.447 284.296 337.881 285.541 337.535C287.012 337.36 288.503 337.534 289.894 338.043C293.281 339.024 296.613 340.186 299.876 341.524C301.432 342.165 302.982 342.841 304.588 343.328C305.056 343.956 305.622 344.506 306.264 344.955C307.373 345.58 308.619 345.921 309.892 345.949C311.589 346.104 313.294 346.167 314.999 346.139C316.303 346.196 317.604 345.955 318.802 345.435C319.088 345.292 319.355 345.114 319.598 344.906C320.058 344.945 320.521 344.883 320.954 344.723C321.388 344.564 321.781 344.311 322.106 343.983C323.029 343.191 323.694 342.141 324.015 340.967C324.43 339.36 324.113 337.444 325.099 336.161C325.36 335.809 325.705 335.527 325.966 335.175C326.281 334.692 326.439 334.123 326.417 333.547C326.428 333.524 326.442 333.503 326.459 333.483C326.675 332.966 326.817 332.42 326.881 331.863C327.002 331.425 327.155 330.996 327.339 330.58C327.84 329.337 328.277 328.069 328.649 326.782C328.904 325.926 329.106 325.055 329.255 324.175C329.361 323.47 329.424 322.765 329.481 322.061C329.555 320.95 329.771 319.854 330.122 318.798C331.003 316.285 331.502 313.653 331.601 310.99V310.835C332.899 310.686 334.094 310.057 334.951 309.071C335.809 308.086 336.267 306.815 336.236 305.508C336.236 304.724 336.07 303.948 335.75 303.232C336.373 302.153 336.698 300.927 336.693 299.681ZM311.491 330.312C311.568 330.587 311.66 330.855 311.751 331.123C311.336 330.721 310.934 330.305 310.519 329.897C310.681 329.953 310.85 330.002 311.005 330.066C311.168 330.132 311.323 330.215 311.47 330.312H311.491ZM309.497 328.959C307.06 326.845 304.243 325.204 301.749 323.153C303.109 323.822 304.433 324.605 305.743 325.352C307.297 326.239 308.873 327.092 310.469 327.909C310.207 328.319 309.87 328.675 309.476 328.959H309.497ZM310.533 323.632L310.653 323.512C310.653 323.815 310.653 324.09 310.653 324.351L309.997 324.125C310.179 323.972 310.35 323.807 310.512 323.632H310.533ZM289.098 329.34C290.098 328.208 290.968 326.967 291.691 325.64C292.656 327.325 294.226 328.544 295.558 329.96C293.409 329.685 291.254 329.453 289.098 329.34Z" fill="url(#paint1_linear_34_505)"/>
<path d="M292.564 308.82L294.1 309.13L299.333 316.874L297.03 317.184L292.564 308.82Z" fill="#2F2E41"/>
<path d="M255.331 340.234C255.747 341.601 256.26 342.936 256.866 344.23C258.6 343.863 260.307 343.376 261.973 342.771C261.644 342.282 261.289 341.812 260.909 341.362C260.496 340.912 260.007 340.537 259.465 340.255C258.888 340.125 258.289 340.125 257.711 340.255C256.922 340.234 256.127 340.248 255.331 340.234Z" fill="#FBBEBE"/>
<path d="M259.472 342.299C259.056 342.112 258.684 341.838 258.383 341.495C258.081 341.152 257.857 340.749 257.725 340.312C257.457 339.434 257.003 338.624 256.394 337.937C256.266 337.954 256.144 338.004 256.041 338.082C255.937 338.16 255.855 338.263 255.803 338.381C255.676 338.606 255.598 338.86 255.457 339.086C255.176 339.487 254.683 339.684 254.33 340.023C253.978 340.361 253.767 340.889 253.386 341.235C252.864 341.62 252.249 341.863 251.604 341.939C250.624 342.161 249.677 342.509 248.787 342.975C248.461 343.17 248.114 343.326 247.751 343.44C247.35 343.5 246.942 343.5 246.54 343.44L243.765 343.243C243.531 343.205 243.293 343.205 243.06 343.243C242.777 343.345 242.536 343.54 242.377 343.796C242.217 344.051 242.148 344.353 242.18 344.652C242.213 344.949 242.308 345.236 242.46 345.494C242.612 345.751 242.816 345.974 243.06 346.146C243.542 346.493 244.074 346.763 244.638 346.95C247.054 347.86 249.542 348.567 252.076 349.064V349.613C253.841 350.48 255.781 350.931 257.747 350.931C257.891 350.94 258.035 350.916 258.169 350.86C258.349 350.726 258.474 350.531 258.521 350.311C259.189 348.365 259.58 346.334 259.684 344.279C259.729 343.757 259.688 343.231 259.564 342.722C259.409 342.221 259.93 342.433 259.451 342.235" fill="#2F2E41"/>
<path d="M312.695 331.834C304.468 332.328 296.339 329.918 288.098 329.664C287.075 329.597 286.048 329.661 285.041 329.854C283.993 330.139 282.978 330.533 282.012 331.031C277.596 333.089 273.024 334.794 268.46 336.492L263.212 338.444C262.192 338.905 261.085 339.146 259.965 339.149C259.465 339.149 258.852 339.043 258.557 339.459C257.704 340.727 258.106 342.581 258.669 344.004C258.852 344.462 259.162 344.962 259.655 345.012C260.001 344.988 260.34 344.902 260.656 344.758C261.606 344.504 262.557 345.146 263.544 345.251C264.755 345.378 265.882 344.688 267.03 344.265C268.932 343.56 271.003 343.56 273.003 343.25C276.349 342.693 279.455 341.136 282.358 339.367C283.413 338.615 284.593 338.057 285.844 337.718C287.326 337.544 288.828 337.715 290.232 338.219C293.646 339.182 297.005 340.325 300.298 341.643C302.01 342.389 303.764 343.031 305.553 343.567C309.456 344.589 313.583 344.342 317.337 342.863C318.654 342.341 320.084 341.453 320.155 340.002C320.204 339.191 319.57 338.479 319.154 337.782C318.887 337.338 318.612 336.894 318.323 336.464C316.914 334.421 315.196 331.687 312.695 331.834Z" fill="#2F2E41"/>
<path opacity="0.1" d="M312.695 331.834C304.468 332.328 296.339 329.918 288.098 329.664C287.075 329.597 286.048 329.661 285.041 329.854C283.993 330.139 282.978 330.533 282.012 331.031C277.596 333.089 273.024 334.794 268.46 336.492L263.212 338.444C262.192 338.905 261.085 339.146 259.965 339.149C259.465 339.149 258.852 339.043 258.557 339.459C257.704 340.727 258.106 342.581 258.669 344.004C258.852 344.462 259.162 344.962 259.655 345.012C260.001 344.988 260.34 344.902 260.656 344.758C261.606 344.504 262.557 345.146 263.544 345.251C264.755 345.378 265.882 344.688 267.03 344.265C268.932 343.56 271.003 343.56 273.003 343.25C276.349 342.693 279.455 341.136 282.358 339.367C283.413 338.615 284.593 338.057 285.844 337.718C287.326 337.544 288.828 337.715 290.232 338.219C293.646 339.182 297.005 340.325 300.298 341.643C302.01 342.389 303.764 343.031 305.553 343.567C309.456 344.589 313.583 344.342 317.337 342.863C318.654 342.341 320.084 341.453 320.155 340.002C320.204 339.191 319.57 338.479 319.154 337.782C318.887 337.338 318.612 336.894 318.323 336.464C316.914 334.421 315.196 331.687 312.695 331.834Z" fill="black"/>
<path d="M271.13 340.615C272.417 341.052 273.715 341.456 275.025 341.827C275.729 340.622 277.138 339.783 277.441 338.402C277.459 338.342 277.459 338.279 277.441 338.219C277.406 338.16 277.355 338.114 277.293 338.085C276.351 337.568 275.308 337.262 274.236 337.19C273.391 337.141 273.004 338.021 272.623 338.642C272.475 338.916 271.475 340.749 271.13 340.615Z" fill="#FBBEBE"/>
<path d="M272.933 339.755C272.548 339.69 272.181 339.545 271.854 339.33C271.528 339.116 271.25 338.836 271.038 338.508C270.862 338.191 270.665 337.761 270.298 337.803C269.932 337.845 269.812 338.226 269.735 338.557C269.491 339.806 269.135 341.03 268.671 342.214C268.207 343.405 267.419 344.442 266.396 345.209C265.917 345.54 265.389 345.787 264.917 346.139C264.526 346.486 264.109 346.801 263.67 347.083C263.359 347.223 263.039 347.341 262.712 347.436C262.231 347.617 261.773 347.853 261.346 348.14C260.966 348.359 260.644 348.666 260.409 349.035C260.293 349.22 260.225 349.432 260.213 349.65C260.2 349.868 260.244 350.086 260.339 350.283C260.437 350.445 260.569 350.584 260.726 350.691C260.883 350.798 261.06 350.87 261.247 350.903C261.623 350.959 262.005 350.959 262.381 350.903C263.882 350.797 265.382 350.663 266.882 350.529C267.515 350.488 268.143 350.401 268.763 350.269L269.742 350.001C270.301 349.853 270.875 349.768 271.454 349.747C271.622 349.732 271.792 349.748 271.954 349.796C272.299 349.909 272.545 350.255 272.905 350.325C273.143 350.348 273.384 350.317 273.609 350.233C274.704 349.999 275.821 349.883 276.941 349.888C277.434 349.888 278.011 349.761 278.237 349.324C278.519 348.775 278.054 348.162 277.864 347.57C277.773 347.193 277.721 346.808 277.709 346.421C277.624 345.463 277.344 344.532 276.884 343.687C276.504 342.982 275.983 342.207 276.251 341.46C276.384 341.223 276.47 340.962 276.504 340.692C276.398 339.48 273.623 339.91 272.933 339.755Z" fill="#2F2E41"/>
<path d="M300.361 318.629C298.901 317.989 297.732 316.828 297.079 315.373C296.945 315.063 296.833 314.732 296.699 314.422C296.269 313.372 295.598 312.438 294.741 311.695C294.65 311.599 294.541 311.523 294.42 311.471C294.299 311.419 294.168 311.392 294.036 311.392C293.905 311.432 293.787 311.505 293.694 311.606C293.602 311.706 293.537 311.829 293.508 311.963C293.429 312.25 293.41 312.549 293.452 312.844C293.523 313.537 293.641 314.224 293.804 314.901L294.205 316.719C294.258 316.998 294.341 317.269 294.452 317.53C294.623 317.834 294.85 318.104 295.121 318.326C295.487 318.664 295.861 318.988 296.234 319.313C296.45 319.501 296.686 319.664 296.938 319.799C297.332 319.987 297.753 320.11 298.185 320.165C299.866 320.384 301.469 321.003 302.862 321.969C302.862 321.969 302.862 320.75 302.862 320.616C302.844 320.262 302.722 319.921 302.51 319.637C301.865 319.167 301.135 318.825 300.361 318.629V318.629Z" fill="#FBBEBE"/>
<path opacity="0.1" d="M300.361 318.629C298.901 317.989 297.732 316.828 297.079 315.373C296.945 315.063 296.833 314.732 296.699 314.422C296.269 313.372 295.598 312.438 294.741 311.695C294.65 311.599 294.541 311.523 294.42 311.471C294.299 311.419 294.168 311.392 294.036 311.392C293.905 311.432 293.787 311.505 293.694 311.606C293.602 311.706 293.537 311.829 293.508 311.963C293.429 312.25 293.41 312.549 293.452 312.844C293.523 313.537 293.641 314.224 293.804 314.901L294.205 316.719C294.258 316.998 294.341 317.269 294.452 317.53C294.623 317.834 294.85 318.104 295.121 318.326C295.487 318.664 295.861 318.988 296.234 319.313C296.45 319.501 296.686 319.664 296.938 319.799C297.332 319.987 297.753 320.11 298.185 320.165C299.866 320.384 301.469 321.003 302.862 321.969C302.862 321.969 302.862 320.75 302.862 320.616C302.844 320.262 302.722 319.921 302.51 319.637C301.865 319.167 301.135 318.825 300.361 318.629V318.629Z" fill="black"/>
<path d="M317.112 304.719C318.217 304.719 319.112 303.817 319.112 302.704C319.112 301.591 318.217 300.688 317.112 300.688C316.007 300.688 315.111 301.591 315.111 302.704C315.111 303.817 316.007 304.719 317.112 304.719Z" fill="#2F2E41"/>
<path d="M315.872 301.492C315.337 301.363 314.772 301.444 314.294 301.717C314.063 301.923 313.878 302.175 313.752 302.457C313.304 303.228 312.954 304.052 312.709 304.909C312.533 305.614 312.505 306.41 312.28 307.136C311.871 308.475 310.822 309.609 310.702 311.005C310.646 311.632 310.751 312.365 310.293 312.787C310.181 312.884 310.061 312.972 309.934 313.048C309.617 313.26 309.348 313.536 309.145 313.858C309.007 314.146 308.819 314.406 308.589 314.627C308.18 314.93 307.504 314.901 307.307 315.331C307.11 315.761 307.624 316.346 307.504 316.853C307.384 317.361 306.941 317.459 306.624 317.741C306.25 318.136 305.988 318.622 305.863 319.15C305.193 319.28 304.504 319.261 303.842 319.097C303.18 318.933 302.562 318.626 302.031 318.199C302.496 319.611 302.699 321.097 302.63 322.582C302.665 322.82 302.652 323.062 302.591 323.294C302.531 323.527 302.424 323.745 302.278 323.935C303.867 324.054 305.44 324.327 306.976 324.753C307.641 324.974 308.36 324.974 309.025 324.753C309.382 324.561 309.701 324.308 309.969 324.006C310.815 323.146 311.702 322.209 311.906 321.018C311.957 320.345 311.969 319.67 311.942 318.995C312.022 318.159 312.194 317.334 312.456 316.536C312.902 314.879 313.201 313.186 313.35 311.477C313.442 310.42 314.358 309.574 314.837 308.658C315.738 306.875 316.668 305.022 316.731 303.021C316.76 302.372 316.534 301.562 315.872 301.492Z" fill="#2F2E41"/>
<path opacity="0.1" d="M315.872 301.492C315.337 301.363 314.772 301.444 314.294 301.717C314.063 301.923 313.878 302.175 313.752 302.457C313.304 303.228 312.954 304.052 312.709 304.909C312.533 305.614 312.505 306.41 312.28 307.136C311.871 308.475 310.822 309.609 310.702 311.005C310.646 311.632 310.751 312.365 310.293 312.787C310.181 312.884 310.061 312.972 309.934 313.048C309.617 313.26 309.348 313.536 309.145 313.858C309.007 314.146 308.819 314.406 308.589 314.627C308.18 314.93 307.504 314.901 307.307 315.331C307.11 315.761 307.624 316.346 307.504 316.853C307.384 317.361 306.941 317.459 306.624 317.741C306.25 318.136 305.988 318.622 305.863 319.15C305.193 319.28 304.504 319.261 303.842 319.097C303.18 318.933 302.562 318.626 302.031 318.199C302.496 319.611 302.699 321.097 302.63 322.582C302.665 322.82 302.652 323.062 302.591 323.294C302.531 323.527 302.424 323.745 302.278 323.935C303.867 324.054 305.44 324.327 306.976 324.753C307.641 324.974 308.36 324.974 309.025 324.753C309.382 324.561 309.701 324.308 309.969 324.006C310.815 323.146 311.702 322.209 311.906 321.018C311.957 320.345 311.969 319.67 311.942 318.995C312.022 318.159 312.194 317.334 312.456 316.536C312.902 314.879 313.201 313.186 313.35 311.477C313.442 310.42 314.358 309.574 314.837 308.658C315.738 306.875 316.668 305.022 316.731 303.021C316.76 302.372 316.534 301.562 315.872 301.492Z" fill="black"/>
<path d="M313.998 333.568C312.287 332.751 311.033 331.236 309.645 329.932C307.004 327.444 303.771 325.704 300.988 323.357C299.143 321.814 297.467 320.017 295.473 318.721C293.688 317.588 291.666 316.882 289.563 316.656C289.332 316.603 289.091 316.603 288.859 316.656C288.593 316.769 288.362 316.952 288.19 317.184C287.292 318.198 286.492 319.295 285.802 320.461C282.28 326.451 277.272 331.482 273.123 337.049C273.028 337.165 272.958 337.299 272.919 337.444C272.901 337.66 272.956 337.875 273.074 338.057L273.919 339.706C274.391 340.636 275.152 341.714 276.166 341.531C276.623 341.398 277.032 341.137 277.342 340.777L281.132 337.148L285.105 333.35C287.429 331.13 289.796 328.854 291.317 326.007C292.501 328.065 294.607 329.41 296.044 331.292C296.593 331.997 297.044 332.793 297.537 333.554C298.319 334.766 299.213 335.907 300.101 337.077L304.658 342.891C305.236 343.712 305.951 344.427 306.771 345.005C307.895 345.617 309.148 345.952 310.427 345.984C312.139 346.137 313.858 346.198 315.576 346.167C316.892 346.22 318.204 345.98 319.415 345.463C320.019 345.197 320.535 344.765 320.903 344.218C321.271 343.67 321.475 343.029 321.493 342.369C321.423 341.687 321.199 341.029 320.838 340.446C319.19 337.507 317.062 335.027 313.998 333.568Z" fill="#2F2E41"/>
<path d="M318.344 305.649C319.196 305.649 319.887 304.955 319.887 304.099C319.887 303.243 319.196 302.549 318.344 302.549C317.492 302.549 316.802 303.243 316.802 304.099C316.802 304.955 317.492 305.649 318.344 305.649Z" fill="#E8E8F0"/>
<path d="M318.006 302.936C318.35 303.628 318.411 304.427 318.175 305.163C317.932 305.886 317.598 306.575 317.182 307.213C316.824 307.872 316.392 308.486 315.893 309.046C318.274 309.158 320.577 308.228 322.669 307.101C324.36 306.192 326.043 305.071 326.945 303.373C326.676 303.437 326.396 303.444 326.124 303.393C325.853 303.342 325.595 303.234 325.367 303.077C324.913 302.765 324.507 302.387 324.162 301.957L322.972 300.618C322.702 300.323 322.466 299.999 322.268 299.652C322.006 299.178 321.896 298.634 321.951 298.095C321.476 298.59 320.947 299.03 320.373 299.406C319.521 299.962 318.584 300.364 317.724 300.914C317.429 301.111 316.752 301.421 316.929 301.816C317.105 302.21 317.767 302.513 318.006 302.936Z" fill="#FBBEBE"/>
<path opacity="0.1" d="M318.006 302.936C318.35 303.628 318.411 304.427 318.175 305.163C317.932 305.886 317.598 306.575 317.182 307.213C316.824 307.872 316.392 308.486 315.893 309.046C318.274 309.158 320.577 308.228 322.669 307.101C324.36 306.192 326.043 305.071 326.945 303.373C326.676 303.437 326.396 303.444 326.124 303.393C325.853 303.342 325.595 303.234 325.367 303.077C324.913 302.765 324.507 302.387 324.162 301.957L322.972 300.618C322.702 300.323 322.466 299.999 322.268 299.652C322.006 299.178 321.896 298.634 321.951 298.095C321.476 298.59 320.947 299.03 320.373 299.406C319.521 299.962 318.584 300.364 317.724 300.914C317.429 301.111 316.752 301.421 316.929 301.816C317.105 302.21 317.767 302.513 318.006 302.936Z" fill="black"/>
<path d="M318.034 303.169C317.793 303.508 317.664 303.915 317.664 304.331C317.664 304.748 317.793 305.154 318.034 305.494C318.105 305.579 318.358 306.107 318.464 306.114C318.516 306.11 318.566 306.095 318.612 306.071C318.658 306.047 318.699 306.013 318.732 305.973C319.273 305.408 319.777 304.808 320.239 304.176C320.711 303.546 321.389 303.102 322.155 302.922C323.104 302.886 324.037 303.177 324.796 303.746C325.15 303.908 325.461 304.149 325.705 304.451C325.875 304.762 325.976 305.105 326.001 305.459C326.231 307.586 326.321 309.726 326.269 311.864C326.309 313.409 326.208 314.954 325.966 316.48C325.811 317.262 325.585 318.03 325.48 318.826C325.397 319.528 325.364 320.234 325.381 320.94V323.886C325.362 324.426 325.4 324.967 325.494 325.5C325.635 326.141 325.938 326.74 326.142 327.367C326.353 328.087 326.496 328.826 326.572 329.573L326.973 332.617C327.1 333.575 327.198 334.625 326.614 335.435C326.353 335.781 326.008 336.063 325.74 336.408C324.747 337.704 325.036 339.558 324.649 341.143C324.322 342.304 323.649 343.336 322.719 344.103C322.387 344.431 321.987 344.683 321.548 344.84C321.109 344.997 320.64 345.055 320.176 345.012C318.936 344.779 318.196 343.49 317.858 342.271C317.52 341.052 317.401 339.727 316.668 338.698C315.996 337.919 315.201 337.255 314.315 336.732C313.419 336.201 312.761 335.346 312.477 334.343C312.399 333.899 312.477 333.441 312.399 332.99C312.333 332.423 312.116 331.883 311.77 331.428C311.425 330.973 310.963 330.62 310.434 330.404C309.8 330.157 309.025 330.066 308.659 329.488C309.566 328.92 310.227 328.032 310.512 327C310.792 325.976 310.943 324.92 310.962 323.858L311.174 320.334C311.272 318.749 311.315 317.184 312.012 315.761C312.322 315.127 312.716 314.528 313.033 313.901C313.463 313.019 313.828 312.108 314.125 311.174C314.632 309.722 315.139 308.27 315.59 306.805C315.766 306.093 316.036 305.408 316.393 304.768C316.774 304.106 317.323 303.31 318.034 303.169Z" fill="#E8E8F0"/>
<path d="M310.181 326.169H311.117L311.315 324.76C311.34 324.477 311.407 324.199 311.512 323.935C311.667 323.655 311.848 323.391 312.054 323.146C312.97 321.842 312.907 320.116 313.132 318.53C313.54 316.436 314.232 314.406 315.189 312.498L317.006 308.447C317.171 308.115 317.304 307.768 317.4 307.411C317.477 307.016 317.514 306.615 317.513 306.213C317.513 305.586 317.71 303.303 317.732 302.689C317.732 302.457 317.217 302.584 317.112 302.379C316.886 301.928 316.576 303.148 316.147 303.415C315.743 303.723 315.449 304.153 315.308 304.641C314.914 305.656 314.675 306.755 314.308 307.763C313.99 308.815 313.405 309.766 312.611 310.525C312.237 310.85 311.808 311.11 311.456 311.463C310.329 312.576 310.216 314.345 310.181 315.937C310.152 316.91 309.969 326.169 310.181 326.169Z" fill="#2F2E41"/>
<path d="M323.662 301.484C323.227 301.712 322.85 302.037 322.56 302.435C322.271 302.832 322.077 303.29 321.993 303.775C321.832 304.746 321.548 305.694 321.148 306.593C320.007 308.58 317.098 309.158 316.288 311.308C316.084 312.03 315.975 312.776 315.964 313.527C315.823 315.07 315.315 316.557 315.16 318.093C315.083 319.289 315.111 320.489 315.245 321.68L316.266 333.815C316.462 335.6 316.36 337.405 315.964 339.156C317.01 339.305 318.078 339.128 319.021 338.649C319.971 338.212 320.845 337.613 321.768 337.105C323.345 336.232 325.092 335.619 326.48 334.456C326.729 334.258 326.943 334.019 327.114 333.751C327.326 333.242 327.468 332.706 327.536 332.159C327.656 331.729 327.809 331.31 327.994 330.904C328.503 329.679 328.945 328.428 329.319 327.156C329.573 326.314 329.775 325.457 329.924 324.591C330.037 323.886 330.1 323.181 330.157 322.477C330.23 321.384 330.448 320.306 330.805 319.27C331.689 316.796 332.19 314.201 332.291 311.575C332.318 311.198 332.292 310.818 332.214 310.448C332.059 309.995 331.851 309.562 331.594 309.158C331.171 308.362 330.889 307.488 330.523 306.678C329.524 304.893 328.093 303.388 326.36 302.302C325.543 301.745 324.585 301.153 323.662 301.484Z" fill="#2F2E41"/>
<path d="M302.383 321.286C301.66 320.906 301.005 320.408 300.446 319.813C300.192 319.517 299.981 319.186 299.742 318.89C299.088 318.187 298.239 317.696 297.304 317.48C296.379 317.277 295.434 317.185 294.487 317.206C293.851 317.163 293.214 317.239 292.606 317.431C292.303 317.533 292.031 317.708 291.813 317.942C291.595 318.176 291.439 318.461 291.359 318.77C291.334 319.153 291.408 319.536 291.575 319.882C291.741 320.228 291.995 320.525 292.31 320.743C292.86 321.195 293.51 321.509 294.205 321.659C294.771 321.76 295.343 321.828 295.917 321.863C299.284 322.216 302.291 324.048 305.243 325.718C307.835 327.193 310.479 328.565 313.174 329.833C313.279 329.027 313.323 328.215 313.308 327.402C313.308 326.796 313.259 325.866 312.688 325.507C311.877 325.167 311.031 324.914 310.166 324.753C308.428 324.185 306.731 323.497 305.088 322.695C304.158 322.293 303.263 321.8 302.383 321.286Z" fill="#FBBEBE"/>
<path d="M317.112 302.246C320.426 302.246 323.113 299.542 323.113 296.207C323.113 292.871 320.426 290.168 317.112 290.168C313.797 290.168 311.11 292.871 311.11 296.207C311.11 299.542 313.797 302.246 317.112 302.246Z" fill="#FBBEBE"/>
<path d="M325.374 308.327C324.895 309 324.504 309.732 324.212 310.504C323.508 312.026 322.31 313.323 321.725 314.937C321.141 316.55 321.134 318.622 319.929 319.94C319.688 320.141 319.506 320.404 319.401 320.701C319.396 320.885 319.377 321.069 319.345 321.25C319.169 321.73 318.387 321.751 318.239 322.244C318.197 322.385 318.239 322.54 318.168 322.681C318.049 322.998 317.626 323.047 317.351 323.238C316.767 323.632 316.886 324.548 316.471 325.119C316.289 325.332 316.055 325.492 315.792 325.585C315.528 325.678 315.245 325.7 314.97 325.648C314.424 325.536 313.899 325.339 313.414 325.063C313.239 324.967 313.048 324.907 312.85 324.886C312.617 324.895 312.391 324.973 312.202 325.112C311.671 325.503 311.245 326.02 310.962 326.617C310.68 327.213 310.549 327.87 310.582 328.53C310.663 329.85 310.978 331.146 311.512 332.356C311.571 332.566 311.675 332.76 311.815 332.927C312.025 333.091 312.278 333.19 312.544 333.21C312.81 333.23 313.076 333.171 313.308 333.039C313.768 332.766 314.257 332.547 314.766 332.384C315.696 332.215 316.605 332.856 317.549 332.8C318.236 332.698 318.883 332.414 319.422 331.975C320.37 331.41 321.221 330.696 321.944 329.861C322.352 329.319 322.648 328.706 323.014 328.128C323.481 327.426 323.986 326.75 324.529 326.106L327.994 321.878C328.339 321.476 328.65 321.047 328.924 320.595C329.232 319.978 329.468 319.328 329.629 318.657C329.999 317.541 330.235 316.384 330.333 315.211C330.354 314.242 330.269 313.273 330.079 312.322C329.974 311.375 329.737 310.448 329.375 309.567C328.621 307.974 326.79 306.678 325.374 308.327Z" fill="#2F2E41"/>
<path d="M337.433 300.449C337.438 299.378 337.189 298.322 336.707 297.366C336.224 296.411 335.522 295.583 334.658 294.952C334.629 293.051 333.928 291.22 332.678 289.787C331.429 288.354 329.712 287.41 327.832 287.123C327.471 285.32 326.485 283.703 325.047 282.557C323.61 281.41 321.814 280.809 319.976 280.859C318.138 280.908 316.377 281.606 315.004 282.828C313.631 284.051 312.733 285.719 312.47 287.539C309.976 286.975 307.694 287.708 307.278 289.244C306.863 290.781 308.624 292.768 311.251 293.472C312.08 293.705 312.943 293.791 313.801 293.726C314.413 294.628 315.206 295.392 316.131 295.968C317.055 296.544 318.09 296.921 319.168 297.073C319.488 298.526 320.205 299.861 321.241 300.929C322.276 301.997 323.587 302.755 325.029 303.119C325.43 304.082 326.05 304.939 326.839 305.621C326.839 305.811 326.839 306.008 326.839 306.206C326.839 306.873 326.97 307.534 327.226 308.15C327.481 308.766 327.855 309.327 328.327 309.798C328.798 310.27 329.358 310.644 329.974 310.9C330.59 311.155 331.251 311.286 331.918 311.286C332.585 311.286 333.245 311.155 333.861 310.9C334.477 310.644 335.037 310.27 335.509 309.798C335.98 309.327 336.354 308.766 336.61 308.15C336.865 307.534 336.996 306.873 336.996 306.206C336.997 305.43 336.831 304.664 336.51 303.958C337.13 302.893 337.449 301.68 337.433 300.449V300.449Z" fill="#F86D70"/>
<path opacity="0.1" d="M308.969 289.569C309.385 288.032 311.667 287.3 314.16 287.863C314.456 286.014 315.396 284.329 316.814 283.107C318.232 281.884 320.037 281.203 321.909 281.183H322.423C321.706 280.965 320.961 280.853 320.211 280.852C318.339 280.872 316.535 281.553 315.117 282.776C313.699 283.998 312.759 285.683 312.463 287.532C309.969 286.968 307.687 287.701 307.272 289.237C306.856 290.774 308.617 292.761 311.244 293.465C311.737 293.602 312.242 293.689 312.752 293.726C310.237 292.972 308.554 291.14 308.969 289.569Z" fill="black"/>
<path opacity="0.1" d="M328.502 306.502C328.491 306.309 328.491 306.116 328.502 305.924C327.708 305.246 327.088 304.388 326.691 303.422C325.248 303.06 323.934 302.301 322.899 301.231C321.863 300.162 321.147 298.824 320.831 297.369C319.751 297.22 318.715 296.846 317.789 296.27C316.863 295.695 316.069 294.931 315.456 294.029C314.956 294.071 314.453 294.057 313.956 293.987C314.573 294.817 315.348 295.516 316.237 296.045C317.125 296.573 318.11 296.921 319.133 297.066C319.453 298.519 320.17 299.854 321.205 300.922C322.24 301.99 323.552 302.748 324.994 303.112C325.395 304.075 326.015 304.932 326.804 305.614C326.804 305.804 326.804 306.001 326.804 306.199C326.781 307.565 327.3 308.884 328.246 309.869C329.192 310.854 330.489 311.424 331.854 311.456C330.858 311.069 330.004 310.387 329.405 309.502C328.806 308.617 328.491 307.571 328.502 306.502V306.502Z" fill="black"/>
<path d="M319.864 298.423C320.27 298.115 320.265 297.425 319.853 296.883C319.441 296.341 318.778 296.151 318.372 296.459C317.967 296.768 317.972 297.457 318.383 298C318.795 298.542 319.458 298.732 319.864 298.423Z" fill="#FBBEBE"/>
<defs>
<linearGradient id="paint0_linear_34_505" x1="540.308" y1="401.625" x2="540.308" y2="280.337" gradientUnits="userSpaceOnUse">
<stop stop-color="#808080" stop-opacity="0.25"/>
<stop offset="0.54" stop-color="#808080" stop-opacity="0.12"/>
<stop offset="1" stop-color="#808080" stop-opacity="0.1"/>
</linearGradient>
<linearGradient id="paint1_linear_34_505" x1="43959.6" y1="47237.5" x2="43959.6" y2="40059.7" gradientUnits="userSpaceOnUse">
<stop stop-color="#808080" stop-opacity="0.25"/>
<stop offset="0.54" stop-color="#808080" stop-opacity="0.12"/>
<stop offset="1" stop-color="#808080" stop-opacity="0.1"/>
</linearGradient>
</defs>
</svg>
