<svg width="842" height="679" viewBox="0 0 842 679" fill="none" xmlns="http://www.w3.org/2000/svg">
<g clip-path="url(#clip0_2_65)">
<path d="M426 678.376C655.75 678.376 842 663.826 842 645.876C842 627.927 655.75 613.376 426 613.376C196.25 613.376 10 627.927 10 645.876C10 663.826 196.25 678.376 426 678.376Z" fill="#3F3D56"/>
<path d="M650.702 193.001C650.702 193.001 653.301 228.092 653.301 229.391C653.301 230.691 635.106 320.368 635.106 320.368C635.106 320.368 609.112 369.755 635.106 368.456C661.099 367.156 653.301 321.668 653.301 321.668L680.594 246.287L668.897 193.001L650.702 193.001Z" fill="#A0616A"/>
<path d="M662.632 282.832H146.169V645.63H662.632V282.832Z" fill="#CDD5D5"/>
<path d="M319.323 421.256H189.645V647.63H319.323V421.256Z" fill="#3F3D56"/>
<path d="M248.563 434.837H213.632V467.4H248.563V434.837Z" fill="#F2F2F2"/>
<path d="M295.336 434.837H260.405V467.4H295.336V434.837Z" fill="#F2F2F2"/>
<path d="M248.563 479.241H213.632V512.989H248.563V479.241Z" fill="#F2F2F2"/>
<path d="M295.336 479.241H260.405V512.989H295.336V479.241Z" fill="#F2F2F2"/>
<path d="M302.832 557.929C307.386 557.929 311.077 554.237 311.077 549.684C311.077 545.13 307.386 541.438 302.832 541.438C298.278 541.438 294.587 545.13 294.587 549.684C294.587 554.237 298.278 557.929 302.832 557.929Z" fill="#7CB083"/>
<path d="M619.156 399.767H362.799V614.897H619.156V399.767Z" fill="#3F3D56"/>
<path d="M716.602 351.134H92.199L133.831 264.092L143.148 244.603L155.337 219.117L164.654 199.628L175.455 177.051H667.407L673.786 199.628L679.295 219.117L686.499 244.603L692.008 264.092L716.602 351.134Z" fill="#3F3D56"/>
<path d="M380.789 488.967H371.794V544.437H380.789V488.967Z" fill="#7CB083"/>
<path d="M380.789 497.213H371.794V503.959H380.789V497.213Z" fill="#F2F2F2"/>
<path d="M380.789 529.445H371.794V536.191H380.789V529.445Z" fill="#F2F2F2"/>
<path d="M407.024 488.967H385.286V544.437H407.024V488.967Z" fill="#7CB083"/>
<path d="M407.024 497.213H385.286V503.959H407.024V497.213Z" fill="#F2F2F2"/>
<path d="M407.024 529.445H385.286V536.191H407.024V529.445Z" fill="#F2F2F2"/>
<path d="M421.266 488.967H412.271V544.437H421.266V488.967Z" fill="#7CB083"/>
<path d="M421.266 497.213H412.271V503.959H421.266V497.213Z" fill="#F2F2F2"/>
<path d="M421.266 529.445H412.271V536.191H421.266V529.445Z" fill="#F2F2F2"/>
<path d="M434.759 488.967H425.764V544.437H434.759V488.967Z" fill="#7CB083"/>
<path d="M434.759 497.213H425.764V503.959H434.759V497.213Z" fill="#F2F2F2"/>
<path d="M434.759 529.445H425.764V536.191H434.759V529.445Z" fill="#F2F2F2"/>
<path d="M443.427 489.164L435.01 492.336L454.575 544.24L462.992 541.068L443.427 489.164Z" fill="#7CB083"/>
<path d="M446.335 496.879L437.918 500.052L440.298 506.364L448.714 503.192L446.335 496.879Z" fill="#F2F2F2"/>
<path d="M457.704 527.039L449.287 530.212L451.667 536.525L460.083 533.352L457.704 527.039Z" fill="#F2F2F2"/>
<path d="M610.911 488.967H589.173V544.437H610.911V488.967Z" fill="#7CB083"/>
<path d="M610.911 497.213H589.173V503.959H610.911V497.213Z" fill="#F2F2F2"/>
<path d="M610.911 529.445H589.173V536.191H610.911V529.445Z" fill="#F2F2F2"/>
<path d="M583.926 488.967H574.931V544.437H583.926V488.967Z" fill="#7CB083"/>
<path d="M583.926 497.213H574.931V503.959H583.926V497.213Z" fill="#F2F2F2"/>
<path d="M583.926 529.445H574.931V536.191H583.926V529.445Z" fill="#F2F2F2"/>
<path d="M570.433 488.967H561.438V544.437H570.433V488.967Z" fill="#7CB083"/>
<path d="M570.433 497.213H561.438V503.959H570.433V497.213Z" fill="#F2F2F2"/>
<path d="M570.433 529.445H561.438V536.191H570.433V529.445Z" fill="#F2F2F2"/>
<path d="M552.77 489.164L533.205 541.068L541.622 544.24L561.187 492.336L552.77 489.164Z" fill="#7CB083"/>
<path d="M549.862 496.879L547.482 503.192L555.899 506.364L558.279 500.052L549.862 496.879Z" fill="#F2F2F2"/>
<path d="M538.493 527.039L536.113 533.352L544.53 536.525L546.91 530.212L538.493 527.039Z" fill="#F2F2F2"/>
<path d="M619.156 544.437H362.799V549.684H619.156V544.437Z" fill="#F2F2F2"/>
<path d="M521.71 488.967H474.487V544.437H521.71V488.967Z" fill="#7CB083"/>
<path d="M510.092 500.961H486.105V511.455H510.092V500.961Z" fill="#F2F2F2"/>
<path d="M493.226 399.767H488.729V447.74H493.226V399.767Z" fill="#CDD5D5"/>
<path d="M490.977 455.236C495.117 455.236 498.473 451.88 498.473 447.74C498.473 443.6 495.117 440.244 490.977 440.244C486.838 440.244 483.482 443.6 483.482 447.74C483.482 451.88 486.838 455.236 490.977 455.236Z" fill="#F2CC8F"/>
<path d="M679.295 219.117H155.337L164.654 199.628H673.786L679.295 219.117Z" fill="#7CB083"/>
<path d="M692.008 264.092H133.831L143.148 244.603H686.499L692.008 264.092Z" fill="#7CB083"/>
<path d="M100 486.376C155.228 486.376 200 441.605 200 386.376C200 331.148 155.228 286.376 100 286.376C44.7715 286.376 0 331.148 0 386.376C0 441.605 44.7715 486.376 100 486.376Z" fill="#7CB083"/>
<path opacity="0.1" d="M100 472.376C147.496 472.376 186 433.873 186 386.376C186 338.88 147.496 300.376 100 300.376C52.5035 300.376 14 338.88 14 386.376C14 433.873 52.5035 472.376 100 472.376Z" fill="black"/>
<path d="M95.8791 437.124V424.607C89.5517 424.484 83.006 422.252 79.188 419.154L81.806 410.851C86.3433 414.251 91.8458 416.118 97.5154 416.179C105.261 416.179 110.498 411.098 110.498 404.034C110.498 397.218 106.243 393.005 98.17 389.286C87.0425 384.329 80.1697 378.628 80.1697 367.847C80.1697 357.56 86.6062 349.752 96.6429 347.893V335.376H103.407V347.398C108.45 347.467 113.37 348.971 117.589 351.735L114.861 359.915C110.815 357.145 106.019 355.675 101.116 355.701C92.7157 355.701 89.5518 361.402 89.5518 366.359C89.5518 372.804 93.5882 376.026 103.079 380.488C114.316 385.693 119.989 392.137 119.989 403.167C119.989 412.957 113.989 422.129 102.752 424.234V437.124H95.8791Z" fill="#CDD5D5"/>
</g>
<defs>
<clipPath id="clip0_2_65">
<rect width="842" height="678.376" fill="white"/>
</clipPath>
</defs>
</svg>
