<svg width="1318" height="1024" viewBox="0 0 1318 1024" fill="none" xmlns="http://www.w3.org/2000/svg">
<line x1="901.5" y1="1024" x2="901.5" stroke="#3D405B" stroke-opacity="0.42" stroke-width="3"/>
<line x1="156.5" y1="1024" x2="156.5" stroke="#3D405B" stroke-opacity="0.42" stroke-width="3"/>
<g filter="url(#filter0_d_6_128)">
<path d="M129.148 558L87.0995 481.68H75.2915V558H26.0435V355.824H108.7C124.636 355.824 138.172 358.608 149.308 364.176C160.636 369.744 169.084 377.424 174.652 387.216C180.22 396.816 183.004 407.568 183.004 419.472C183.004 432.912 179.164 444.912 171.484 455.472C163.996 466.032 152.86 473.52 138.076 477.936L184.732 558H129.148ZM75.2915 446.832H105.82C114.844 446.832 121.564 444.624 125.98 440.208C130.588 435.792 132.892 429.552 132.892 421.488C132.892 413.808 130.588 407.76 125.98 403.344C121.564 398.928 114.844 396.72 105.82 396.72H75.2915V446.832ZM388.735 560.016C369.727 560.016 352.255 555.6 336.319 546.768C320.575 537.936 307.999 525.648 298.591 509.904C289.375 493.968 284.767 476.112 284.767 456.336C284.767 436.56 289.375 418.8 298.591 403.056C307.999 387.312 320.575 375.024 336.319 366.192C352.255 357.36 369.727 352.944 388.735 352.944C407.743 352.944 425.119 357.36 440.863 366.192C456.799 375.024 469.279 387.312 478.303 403.056C487.519 418.8 492.127 436.56 492.127 456.336C492.127 476.112 487.519 493.968 478.303 509.904C469.087 525.648 456.607 537.936 440.863 546.768C425.119 555.6 407.743 560.016 388.735 560.016ZM388.735 515.088C404.863 515.088 417.727 509.712 427.327 498.96C437.119 488.208 442.015 474 442.015 456.336C442.015 438.48 437.119 424.272 427.327 413.712C417.727 402.96 404.863 397.584 388.735 397.584C372.415 397.584 359.359 402.864 349.567 413.424C339.967 423.984 335.167 438.288 335.167 456.336C335.167 474.192 339.967 488.496 349.567 499.248C359.359 509.808 372.415 515.088 388.735 515.088ZM721.125 454.32C732.837 456.816 742.245 462.672 749.349 471.888C756.453 480.912 760.005 491.28 760.005 502.992C760.005 519.888 754.053 533.328 742.149 543.312C730.437 553.104 714.021 558 692.901 558H598.725V355.824H689.733C710.277 355.824 726.309 360.528 737.829 369.936C749.541 379.344 755.397 392.112 755.397 408.24C755.397 420.144 752.229 430.032 745.893 437.904C739.749 445.776 731.493 451.248 721.125 454.32ZM647.973 437.616H680.229C688.293 437.616 694.437 435.888 698.661 432.432C703.077 428.784 705.285 423.504 705.285 416.592C705.285 409.68 703.077 404.4 698.661 400.752C694.437 397.104 688.293 395.28 680.229 395.28H647.973V437.616ZM684.261 518.256C692.517 518.256 698.853 516.432 703.269 512.784C707.877 508.944 710.181 503.472 710.181 496.368C710.181 489.264 707.781 483.696 702.981 479.664C698.373 475.632 691.941 473.616 683.685 473.616H647.973V518.256H684.261ZM917.016 355.824V558H867.768V355.824H917.016ZM1212.77 558H1163.52L1081.15 433.296V558H1031.91V355.824H1081.15L1163.52 481.104V355.824H1212.77V558ZM132.889 844.016C118.105 844.016 104.857 841.616 93.1452 836.816C81.4332 832.016 72.0252 824.912 64.9212 815.504C58.0092 806.096 54.3612 794.768 53.9772 781.52H106.393C107.161 789.008 109.753 794.768 114.169 798.8C118.585 802.64 124.345 804.56 131.449 804.56C138.745 804.56 144.505 802.928 148.729 799.664C152.953 796.208 155.065 791.504 155.065 785.552C155.065 780.56 153.337 776.432 149.881 773.168C146.617 769.904 142.489 767.216 137.497 765.104C132.697 762.992 125.785 760.592 116.761 757.904C103.705 753.872 93.0492 749.84 84.7932 745.808C76.5372 741.776 69.4332 735.824 63.4812 727.952C57.5292 720.08 54.5532 709.808 54.5532 697.136C54.5532 678.32 61.3692 663.632 75.0012 653.072C88.6332 642.32 106.393 636.944 128.281 636.944C150.553 636.944 168.505 642.32 182.137 653.072C195.769 663.632 203.065 678.416 204.025 697.424H150.745C150.361 690.896 147.961 685.808 143.545 682.16C139.129 678.32 133.465 676.4 126.553 676.4C120.601 676.4 115.801 678.032 112.153 681.296C108.505 684.368 106.681 688.88 106.681 694.832C106.681 701.36 109.753 706.448 115.897 710.096C122.041 713.744 131.641 717.68 144.697 721.904C157.753 726.32 168.313 730.544 176.377 734.576C184.633 738.608 191.737 744.464 197.689 752.144C203.641 759.824 206.617 769.712 206.617 781.808C206.617 793.328 203.641 803.792 197.689 813.2C191.929 822.608 183.481 830.096 172.345 835.664C161.209 841.232 148.057 844.016 132.889 844.016ZM461.565 639.824V679.28H407.997V842H358.749V679.28H305.181V639.824H461.565ZM661.097 844.016C642.089 844.016 624.617 839.6 608.681 830.768C592.937 821.936 580.361 809.648 570.953 793.904C561.737 777.968 557.129 760.112 557.129 740.336C557.129 720.56 561.737 702.8 570.953 687.056C580.361 671.312 592.937 659.024 608.681 650.192C624.617 641.36 642.089 636.944 661.097 636.944C680.105 636.944 697.481 641.36 713.225 650.192C729.161 659.024 741.641 671.312 750.665 687.056C759.881 702.8 764.489 720.56 764.489 740.336C764.489 760.112 759.881 777.968 750.665 793.904C741.449 809.648 728.969 821.936 713.225 830.768C697.481 839.6 680.105 844.016 661.097 844.016ZM661.097 799.088C677.225 799.088 690.089 793.712 699.689 782.96C709.481 772.208 714.377 758 714.377 740.336C714.377 722.48 709.481 708.272 699.689 697.712C690.089 686.96 677.225 681.584 661.097 681.584C644.777 681.584 631.721 686.864 621.929 697.424C612.329 707.984 607.529 722.288 607.529 740.336C607.529 758.192 612.329 772.496 621.929 783.248C631.721 793.808 644.777 799.088 661.097 799.088ZM974.191 842L932.143 765.68H920.335V842H871.087V639.824H953.743C969.679 639.824 983.215 642.608 994.351 648.176C1005.68 653.744 1014.13 661.424 1019.7 671.216C1025.26 680.816 1028.05 691.568 1028.05 703.472C1028.05 716.912 1024.21 728.912 1016.53 739.472C1009.04 750.032 997.903 757.52 983.119 761.936L1029.78 842H974.191ZM920.335 730.832H950.863C959.887 730.832 966.607 728.624 971.023 724.208C975.631 719.792 977.935 713.552 977.935 705.488C977.935 697.808 975.631 691.76 971.023 687.344C966.607 682.928 959.887 680.72 950.863 680.72H920.335V730.832ZM1187.41 679.28V720.176H1253.36V758.192H1187.41V802.544H1262V842H1138.16V639.824H1262V679.28H1187.41Z" fill="#F4F1DE" shape-rendering="crispEdges"/>
<path d="M129.148 558L126.52 559.448L127.375 561H129.148V558ZM87.0995 481.68L89.7271 480.232L88.8719 478.68H87.0995V481.68ZM75.2915 481.68V478.68H72.2915V481.68H75.2915ZM75.2915 558V561H78.2915V558H75.2915ZM26.0435 558H23.0435V561H26.0435V558ZM26.0435 355.824V352.824H23.0435V355.824H26.0435ZM149.308 364.176L147.966 366.859L147.975 366.864L147.984 366.868L149.308 364.176ZM174.652 387.216L172.044 388.699L172.05 388.71L172.056 388.721L174.652 387.216ZM171.484 455.472L169.057 453.707L169.047 453.722L169.036 453.737L171.484 455.472ZM138.076 477.936L137.217 475.061L133.564 476.153L135.483 479.446L138.076 477.936ZM184.732 558V561H189.952L187.324 556.49L184.732 558ZM75.2915 446.832H72.2915V449.832H75.2915V446.832ZM125.98 440.208L123.904 438.042L123.881 438.064L123.858 438.087L125.98 440.208ZM125.98 403.344L123.858 405.465L123.881 405.488L123.904 405.51L125.98 403.344ZM75.2915 396.72V393.72H72.2915V396.72H75.2915ZM131.775 556.552L89.7271 480.232L84.4719 483.128L126.52 559.448L131.775 556.552ZM87.0995 478.68H75.2915V484.68H87.0995V478.68ZM72.2915 481.68V558H78.2915V481.68H72.2915ZM75.2915 555H26.0435V561H75.2915V555ZM29.0435 558V355.824H23.0435V558H29.0435ZM26.0435 358.824H108.7V352.824H26.0435V358.824ZM108.7 358.824C124.296 358.824 137.346 361.55 147.966 366.859L150.649 361.493C138.997 355.666 124.975 352.824 108.7 352.824V358.824ZM147.984 366.868C158.84 372.204 166.808 379.491 172.044 388.699L177.259 385.733C171.359 375.356 162.431 367.284 150.631 361.484L147.984 366.868ZM172.056 388.721C177.34 397.831 180.004 408.057 180.004 419.472H186.004C186.004 407.079 183.099 395.801 177.247 385.711L172.056 388.721ZM180.004 419.472C180.004 432.298 176.353 443.676 169.057 453.707L173.91 457.237C181.974 446.148 186.004 433.526 186.004 419.472H180.004ZM169.036 453.737C162.006 463.651 151.487 470.799 137.217 475.061L138.934 480.81C154.232 476.241 165.985 468.413 173.931 457.207L169.036 453.737ZM135.483 479.446L182.139 559.51L187.324 556.49L140.668 476.426L135.483 479.446ZM184.732 555H129.148V561H184.732V555ZM75.2915 449.832H105.82V443.832H75.2915V449.832ZM105.82 449.832C115.284 449.832 122.913 447.517 128.101 442.329L123.858 438.087C120.214 441.731 114.403 443.832 105.82 443.832V449.832ZM128.055 442.374C133.4 437.252 135.892 430.141 135.892 421.488H129.892C129.892 428.963 127.775 434.332 123.904 438.042L128.055 442.374ZM135.892 421.488C135.892 413.169 133.372 406.273 128.055 401.178L123.904 405.51C127.804 409.247 129.892 414.447 129.892 421.488H135.892ZM128.101 401.223C122.913 396.035 115.284 393.72 105.82 393.72V399.72C114.403 399.72 120.214 401.821 123.858 405.465L128.101 401.223ZM105.82 393.72H75.2915V399.72H105.82V393.72ZM72.2915 396.72V446.832H78.2915V396.72H72.2915ZM336.319 546.768L334.851 549.384L334.858 549.388L334.864 549.392L336.319 546.768ZM298.591 509.904L295.994 511.406L296.004 511.424L296.015 511.443L298.591 509.904ZM298.591 403.056L296.015 401.517L296.008 401.529L296.001 401.54L298.591 403.056ZM336.319 366.192L334.864 363.568L334.858 363.572L334.851 363.576L336.319 366.192ZM440.863 366.192L439.395 368.808L439.402 368.812L439.408 368.816L440.863 366.192ZM478.303 403.056L475.7 404.548L475.707 404.56L475.713 404.572L478.303 403.056ZM478.303 509.904L480.892 511.42L480.896 511.413L480.9 511.406L478.303 509.904ZM440.863 546.768L442.33 549.384L442.33 549.384L440.863 546.768ZM427.327 498.96L425.108 496.94L425.099 496.951L425.089 496.962L427.327 498.96ZM427.327 413.712L425.089 415.71L425.108 415.731L425.127 415.752L427.327 413.712ZM349.567 413.424L347.367 411.384L347.357 411.395L347.347 411.406L349.567 413.424ZM349.567 499.248L347.329 501.246L347.348 501.267L347.367 501.288L349.567 499.248ZM388.735 557.016C370.212 557.016 353.244 552.719 337.773 544.144L334.864 549.392C351.265 558.481 369.241 563.016 388.735 563.016V557.016ZM337.786 544.152C322.507 535.58 310.31 523.667 301.166 508.365L296.015 511.443C305.688 527.629 318.642 540.292 334.851 549.384L337.786 544.152ZM301.188 508.402C292.255 492.956 287.767 475.625 287.767 456.336H281.767C281.767 476.599 286.494 494.98 295.994 511.406L301.188 508.402ZM287.767 456.336C287.767 437.046 292.255 419.817 301.18 404.572L296.001 401.54C286.494 417.783 281.767 436.074 281.767 456.336H287.767ZM301.166 404.595C310.31 389.293 322.507 377.38 337.786 368.808L334.851 363.576C318.642 372.668 305.688 385.331 296.015 401.517L301.166 404.595ZM337.773 368.816C353.244 360.241 370.212 355.944 388.735 355.944V349.944C369.241 349.944 351.265 354.479 334.864 363.568L337.773 368.816ZM388.735 355.944C407.257 355.944 424.123 360.241 439.395 368.808L442.33 363.576C426.114 354.479 408.228 349.944 388.735 349.944V355.944ZM439.408 368.816C454.867 377.384 466.949 389.281 475.7 404.548L480.905 401.564C471.608 385.343 458.73 372.664 442.317 363.568L439.408 368.816ZM475.713 404.572C484.638 419.817 489.127 437.046 489.127 456.336H495.127C495.127 436.074 490.399 417.783 480.892 401.54L475.713 404.572ZM489.127 456.336C489.127 475.625 484.638 492.956 475.706 508.402L480.9 511.406C490.399 494.98 495.127 476.599 495.127 456.336H489.127ZM475.713 508.388C466.764 523.678 454.669 535.583 439.395 544.152L442.33 549.384C458.544 540.289 471.409 527.618 480.892 511.42L475.713 508.388ZM439.395 544.152C424.123 552.719 407.257 557.016 388.735 557.016V563.016C408.228 563.016 426.114 558.481 442.33 549.384L439.395 544.152ZM388.735 518.088C405.604 518.088 419.324 512.427 429.564 500.958L425.089 496.962C416.129 506.997 404.121 512.088 388.735 512.088V518.088ZM429.545 500.98C439.943 489.562 445.015 474.579 445.015 456.336H439.015C439.015 473.421 434.294 486.854 425.108 496.94L429.545 500.98ZM445.015 456.336C445.015 437.914 439.949 422.912 429.526 411.672L425.127 415.752C434.288 425.632 439.015 439.046 439.015 456.336H445.015ZM429.564 411.714C419.324 400.245 405.604 394.584 388.735 394.584V400.584C404.121 400.584 416.129 405.675 425.089 415.71L429.564 411.714ZM388.735 394.584C371.702 394.584 357.805 400.127 347.367 411.384L351.766 415.464C360.912 405.601 373.127 400.584 388.735 400.584V394.584ZM347.347 411.406C337.122 422.653 332.167 437.747 332.167 456.336H338.167C338.167 438.829 342.811 425.315 351.786 415.442L347.347 411.406ZM332.167 456.336C332.167 474.746 337.128 489.821 347.329 501.246L351.804 497.25C342.805 487.171 338.167 473.638 338.167 456.336H332.167ZM347.367 501.288C357.805 512.545 371.702 518.088 388.735 518.088V512.088C373.127 512.088 360.912 507.071 351.766 497.208L347.367 501.288ZM721.125 454.32L720.273 451.444L720.499 457.254L721.125 454.32ZM749.349 471.888L746.973 473.72L746.982 473.732L746.992 473.744L749.349 471.888ZM742.149 543.312L744.073 545.614L744.077 545.611L742.149 543.312ZM598.725 558H595.725V561H598.725V558ZM598.725 355.824V352.824H595.725V355.824H598.725ZM737.829 369.936L735.931 372.26L735.941 372.267L735.95 372.275L737.829 369.936ZM745.893 437.904L743.556 436.023L743.542 436.04L743.528 436.058L745.893 437.904ZM647.973 437.616H644.973V440.616H647.973V437.616ZM698.661 432.432L700.56 434.754L700.566 434.749L700.571 434.745L698.661 432.432ZM698.661 400.752L696.7 403.022L696.725 403.044L696.75 403.065L698.661 400.752ZM647.973 395.28V392.28H644.973V395.28H647.973ZM703.269 512.784L705.179 515.097L705.189 515.089L703.269 512.784ZM702.981 479.664L701.005 481.922L701.028 481.942L701.051 481.961L702.981 479.664ZM647.973 473.616V470.616H644.973V473.616H647.973ZM647.973 518.256H644.973V521.256H647.973V518.256ZM720.499 457.254C731.538 459.607 740.317 465.085 746.973 473.72L751.725 470.056C744.173 460.259 734.136 454.025 721.75 451.386L720.499 457.254ZM746.992 473.744C753.67 482.228 757.005 491.939 757.005 502.992H763.005C763.005 490.621 759.235 479.596 751.706 470.032L746.992 473.744ZM757.005 502.992C757.005 519.089 751.381 531.654 740.221 541.013L744.077 545.611C756.725 535.002 763.005 520.687 763.005 502.992H757.005ZM740.225 541.01C729.227 550.205 713.585 555 692.901 555V561C714.456 561 731.646 556.003 744.073 545.614L740.225 541.01ZM692.901 555H598.725V561H692.901V555ZM601.725 558V355.824H595.725V558H601.725ZM598.725 358.824H689.733V352.824H598.725V358.824ZM689.733 358.824C709.846 358.824 725.119 363.43 735.931 372.26L739.726 367.612C727.498 357.626 710.707 352.824 689.733 352.824V358.824ZM735.95 372.275C746.895 381.067 752.397 392.944 752.397 408.24H758.397C758.397 391.28 752.186 377.621 739.708 367.597L735.95 372.275ZM752.397 408.24C752.397 419.587 749.389 428.775 743.556 436.023L748.23 439.785C755.068 431.289 758.397 420.701 758.397 408.24H752.397ZM743.528 436.058C737.801 443.396 730.094 448.534 720.273 451.444L721.977 457.196C732.892 453.962 741.697 448.156 748.258 439.75L743.528 436.058ZM647.973 440.616H680.229V434.616H647.973V440.616ZM680.229 440.616C688.666 440.616 695.597 438.815 700.56 434.754L696.761 430.11C693.277 432.961 687.92 434.616 680.229 434.616V440.616ZM700.571 434.745C705.821 430.409 708.285 424.195 708.285 416.592H702.285C702.285 422.813 700.333 427.159 696.75 430.119L700.571 434.745ZM708.285 416.592C708.285 408.989 705.821 402.775 700.571 398.439L696.75 403.065C700.333 406.025 702.285 410.371 702.285 416.592H708.285ZM700.622 398.482C695.654 394.192 688.698 392.28 680.229 392.28V398.28C687.887 398.28 693.219 400.016 696.7 403.022L700.622 398.482ZM680.229 392.28H647.973V398.28H680.229V392.28ZM644.973 395.28V437.616H650.973V395.28H644.973ZM684.261 521.256C692.913 521.256 700.032 519.349 705.179 515.097L701.358 510.471C697.673 513.515 692.12 515.256 684.261 515.256V521.256ZM705.189 515.089C710.61 510.572 713.181 504.181 713.181 496.368H707.181C707.181 502.763 705.144 507.316 701.348 510.479L705.189 515.089ZM713.181 496.368C713.181 488.51 710.484 482.049 704.91 477.367L701.051 481.961C705.077 485.343 707.181 490.018 707.181 496.368H713.181ZM704.956 477.406C699.636 472.751 692.412 470.616 683.685 470.616V476.616C691.47 476.616 697.11 478.513 701.005 481.922L704.956 477.406ZM683.685 470.616H647.973V476.616H683.685V470.616ZM644.973 473.616V518.256H650.973V473.616H644.973ZM647.973 521.256H684.261V515.256H647.973V521.256ZM917.016 355.824H920.016V352.824H917.016V355.824ZM917.016 558V561H920.016V558H917.016ZM867.768 558H864.768V561H867.768V558ZM867.768 355.824V352.824H864.768V355.824H867.768ZM914.016 355.824V558H920.016V355.824H914.016ZM917.016 555H867.768V561H917.016V555ZM870.768 558V355.824H864.768V558H870.768ZM867.768 358.824H917.016V352.824H867.768V358.824ZM1212.77 558V561H1215.77V558H1212.77ZM1163.52 558L1161.02 559.653L1161.91 561H1163.52V558ZM1081.15 433.296L1083.66 431.643L1078.15 423.311V433.296H1081.15ZM1081.15 558V561H1084.15V558H1081.15ZM1031.91 558H1028.91V561H1031.91V558ZM1031.91 355.824V352.824H1028.91V355.824H1031.91ZM1081.15 355.824L1083.66 354.176L1082.77 352.824H1081.15V355.824ZM1163.52 481.104L1161.02 482.752L1166.52 491.128V481.104H1163.52ZM1163.52 355.824V352.824H1160.52V355.824H1163.52ZM1212.77 355.824H1215.77V352.824H1212.77V355.824ZM1212.77 555H1163.52V561H1212.77V555ZM1166.03 556.347L1083.66 431.643L1078.65 434.949L1161.02 559.653L1166.03 556.347ZM1078.15 433.296V558H1084.15V433.296H1078.15ZM1081.15 555H1031.91V561H1081.15V555ZM1034.91 558V355.824H1028.91V558H1034.91ZM1031.91 358.824H1081.15V352.824H1031.91V358.824ZM1078.65 357.472L1161.02 482.752L1166.03 479.456L1083.66 354.176L1078.65 357.472ZM1166.52 481.104V355.824H1160.52V481.104H1166.52ZM1163.52 358.824H1212.77V352.824H1163.52V358.824ZM1209.77 355.824V558H1215.77V355.824H1209.77ZM93.1452 836.816L92.0076 839.592L92.0076 839.592L93.1452 836.816ZM64.9212 815.504L62.5036 817.28L62.5152 817.296L62.5271 817.312L64.9212 815.504ZM53.9772 781.52V778.52H50.889L50.9785 781.607L53.9772 781.52ZM106.393 781.52L109.378 781.214L109.101 778.52H106.393V781.52ZM114.169 798.8L112.146 801.015L112.173 801.04L112.201 801.064L114.169 798.8ZM148.729 799.664L150.564 802.038L150.597 802.012L150.629 801.986L148.729 799.664ZM149.881 773.168L147.76 775.289L147.79 775.32L147.821 775.349L149.881 773.168ZM137.497 765.104L136.289 767.85L136.309 767.859L136.328 767.867L137.497 765.104ZM116.761 757.904L115.876 760.77L115.89 760.775L115.905 760.779L116.761 757.904ZM63.4812 727.952L65.8742 726.143L65.8742 726.143L63.4812 727.952ZM75.0012 653.072L76.8384 655.444L76.8488 655.436L76.8591 655.427L75.0012 653.072ZM182.137 653.072L180.279 655.427L180.29 655.436L180.3 655.444L182.137 653.072ZM204.025 697.424V700.424H207.181L207.021 697.273L204.025 697.424ZM150.745 697.424L147.75 697.6L147.917 700.424H150.745V697.424ZM143.545 682.16L141.577 684.424L141.605 684.449L141.635 684.473L143.545 682.16ZM112.153 681.296L114.086 683.591L114.12 683.562L114.154 683.532L112.153 681.296ZM115.897 710.096L117.429 707.516L117.429 707.516L115.897 710.096ZM144.697 721.904L145.658 719.062L145.64 719.056L145.621 719.05L144.697 721.904ZM176.377 734.576L175.036 737.259L175.048 737.266L175.061 737.272L176.377 734.576ZM197.689 752.144L195.318 753.982L195.318 753.982L197.689 752.144ZM197.689 813.2L195.154 811.596L195.142 811.615L195.131 811.634L197.689 813.2ZM172.345 835.664L171.004 832.981L171.004 832.981L172.345 835.664ZM132.889 841.016C118.431 841.016 105.579 838.669 94.2829 834.04L92.0076 839.592C104.136 844.563 117.78 847.016 132.889 847.016V841.016ZM94.2829 834.04C83.0309 829.429 74.0711 822.643 67.3154 813.696L62.5271 817.312C69.9794 827.181 79.8355 834.603 92.0076 839.592L94.2829 834.04ZM67.3389 813.728C60.8351 804.875 57.3448 794.157 56.976 781.433L50.9785 781.607C51.3777 795.379 55.1834 807.317 62.5036 817.28L67.3389 813.728ZM53.9772 784.52H106.393V778.52H53.9772V784.52ZM103.409 781.826C104.232 789.851 107.056 796.368 112.146 801.015L116.192 796.585C112.45 793.168 110.091 788.165 109.378 781.214L103.409 781.826ZM112.201 801.064C117.273 805.475 123.783 807.56 131.449 807.56V801.56C124.907 801.56 119.897 799.805 116.138 796.536L112.201 801.064ZM131.449 807.56C139.169 807.56 145.651 805.834 150.564 802.038L146.895 797.29C143.359 800.022 138.322 801.56 131.449 801.56V807.56ZM150.629 801.986C155.618 797.904 158.065 792.311 158.065 785.552H152.065C152.065 790.697 150.288 794.512 146.83 797.342L150.629 801.986ZM158.065 785.552C158.065 779.781 156.03 774.849 151.941 770.987L147.821 775.349C150.644 778.015 152.065 781.339 152.065 785.552H158.065ZM152.003 771.047C148.422 767.466 143.953 764.578 138.666 762.341L136.328 767.867C141.025 769.854 144.812 772.342 147.76 775.289L152.003 771.047ZM138.705 762.358C133.735 760.171 126.683 757.729 117.618 755.029L115.905 760.779C124.887 763.455 131.659 765.813 136.289 767.85L138.705 762.358ZM117.646 755.038C104.674 751.032 94.1772 747.052 86.1097 743.112L83.4767 748.504C91.9213 752.628 102.736 756.712 115.876 760.77L117.646 755.038ZM86.1097 743.112C78.3082 739.302 71.5635 733.667 65.8742 726.143L61.0882 729.761C67.3029 737.981 74.7663 744.25 83.4767 748.504L86.1097 743.112ZM65.8742 726.143C60.4156 718.923 57.5532 709.342 57.5532 697.136H51.5532C51.5532 710.274 54.6429 721.237 61.0882 729.761L65.8742 726.143ZM57.5532 697.136C57.5532 679.151 64.0135 665.378 76.8384 655.444L73.164 650.7C58.7249 661.886 51.5532 677.489 51.5532 697.136H57.5532ZM76.8591 655.427C89.8366 645.192 106.888 639.944 128.281 639.944V633.944C105.898 633.944 87.4299 639.448 73.1434 650.716L76.8591 655.427ZM128.281 639.944C150.072 639.944 167.311 645.199 180.279 655.427L183.995 650.716C169.7 639.441 151.034 633.944 128.281 633.944V639.944ZM180.3 655.444C193.164 665.408 200.108 679.339 201.029 697.575L207.021 697.273C206.022 677.493 198.375 661.856 183.974 650.7L180.3 655.444ZM204.025 694.424H150.745V700.424H204.025V694.424ZM153.74 697.248C153.315 690.017 150.608 684.103 145.456 679.847L141.635 684.473C145.314 687.513 147.408 691.774 147.75 697.6L153.74 697.248ZM145.514 679.896C140.456 675.498 134.051 673.4 126.553 673.4V679.4C132.88 679.4 137.803 681.142 141.577 684.424L145.514 679.896ZM126.553 673.4C120.03 673.4 114.464 675.203 110.153 679.06L114.154 683.532C117.139 680.861 121.172 679.4 126.553 679.4V673.4ZM110.221 679.001C105.732 682.781 103.681 688.234 103.681 694.832H109.681C109.681 689.526 111.278 685.955 114.086 683.591L110.221 679.001ZM103.681 694.832C103.681 702.534 107.415 708.549 114.366 712.676L117.429 707.516C112.091 704.347 109.681 700.186 109.681 694.832H103.681ZM114.366 712.676C120.804 716.499 130.662 720.516 143.774 724.758L145.621 719.05C132.621 714.844 123.278 710.989 117.429 707.516L114.366 712.676ZM143.736 724.746C156.722 729.138 167.141 733.312 175.036 737.259L177.719 731.893C169.486 727.776 158.784 723.502 145.658 719.062L143.736 724.746ZM175.061 737.272C182.88 741.091 189.631 746.643 195.318 753.982L200.06 750.306C193.844 742.285 186.386 736.125 177.694 731.88L175.061 737.272ZM195.318 753.982C200.771 761.018 203.617 770.211 203.617 781.808H209.617C209.617 769.213 206.511 758.63 200.06 750.306L195.318 753.982ZM203.617 781.808C203.617 792.781 200.791 802.685 195.154 811.596L200.224 814.804C206.491 804.899 209.617 793.875 209.617 781.808H203.617ZM195.131 811.634C189.7 820.503 181.704 827.631 171.004 832.981L173.687 838.347C185.259 832.561 194.158 824.713 200.248 814.766L195.131 811.634ZM171.004 832.981C160.365 838.3 147.692 841.016 132.889 841.016V847.016C148.423 847.016 162.053 844.164 173.687 838.347L171.004 832.981ZM461.565 639.824H464.565V636.824H461.565V639.824ZM461.565 679.28V682.28H464.565V679.28H461.565ZM407.997 679.28V676.28H404.997V679.28H407.997ZM407.997 842V845H410.997V842H407.997ZM358.749 842H355.749V845H358.749V842ZM358.749 679.28H361.749V676.28H358.749V679.28ZM305.181 679.28H302.181V682.28H305.181V679.28ZM305.181 639.824V636.824H302.181V639.824H305.181ZM458.565 639.824V679.28H464.565V639.824H458.565ZM461.565 676.28H407.997V682.28H461.565V676.28ZM404.997 679.28V842H410.997V679.28H404.997ZM407.997 839H358.749V845H407.997V839ZM361.749 842V679.28H355.749V842H361.749ZM358.749 676.28H305.181V682.28H358.749V676.28ZM308.181 679.28V639.824H302.181V679.28H308.181ZM305.181 642.824H461.565V636.824H305.181V642.824ZM608.681 830.768L607.213 833.384L607.22 833.388L607.227 833.392L608.681 830.768ZM570.953 793.904L568.356 795.406L568.367 795.424L568.378 795.443L570.953 793.904ZM570.953 687.056L568.378 685.517L568.371 685.529L568.364 685.54L570.953 687.056ZM608.681 650.192L607.227 647.568L607.22 647.572L607.213 647.576L608.681 650.192ZM713.225 650.192L711.757 652.808L711.764 652.812L711.771 652.816L713.225 650.192ZM750.665 687.056L748.062 688.548L748.069 688.56L748.076 688.572L750.665 687.056ZM750.665 793.904L753.254 795.42L753.258 795.413L753.262 795.406L750.665 793.904ZM713.225 830.768L714.693 833.384L714.693 833.384L713.225 830.768ZM699.689 782.96L697.471 780.94L697.461 780.951L697.451 780.962L699.689 782.96ZM699.689 697.712L697.451 699.71L697.47 699.731L697.489 699.752L699.689 697.712ZM621.929 697.424L619.729 695.384L619.719 695.395L619.709 695.406L621.929 697.424ZM621.929 783.248L619.691 785.246L619.71 785.267L619.729 785.288L621.929 783.248ZM661.097 841.016C642.575 841.016 625.607 836.719 610.135 828.144L607.227 833.392C623.627 842.481 641.603 847.016 661.097 847.016V841.016ZM610.149 828.152C594.869 819.58 582.672 807.667 573.528 792.365L568.378 795.443C578.05 811.629 591.005 824.292 607.213 833.384L610.149 828.152ZM573.55 792.402C564.618 776.956 560.129 759.625 560.129 740.336H554.129C554.129 760.599 558.856 778.98 568.356 795.406L573.55 792.402ZM560.129 740.336C560.129 721.046 564.618 703.817 573.542 688.572L568.364 685.54C558.856 701.783 554.129 720.074 554.129 740.336H560.129ZM573.528 688.595C582.672 673.293 594.869 661.38 610.149 652.808L607.213 647.576C591.005 656.668 578.05 669.331 568.378 685.517L573.528 688.595ZM610.135 652.816C625.607 644.241 642.575 639.944 661.097 639.944V633.944C641.603 633.944 623.627 638.479 607.227 647.568L610.135 652.816ZM661.097 639.944C679.619 639.944 696.486 644.241 711.757 652.808L714.693 647.576C698.476 638.479 680.591 633.944 661.097 633.944V639.944ZM711.771 652.816C727.23 661.384 739.312 673.281 748.062 688.548L753.268 685.564C743.97 669.343 731.092 656.664 714.679 647.568L711.771 652.816ZM748.076 688.572C757 703.817 761.489 721.046 761.489 740.336H767.489C767.489 720.074 762.762 701.783 753.254 685.54L748.076 688.572ZM761.489 740.336C761.489 759.625 757 776.956 748.068 792.402L753.262 795.406C762.762 778.98 767.489 760.599 767.489 740.336H761.489ZM748.076 792.388C739.126 807.678 727.031 819.583 711.757 828.152L714.693 833.384C730.907 824.289 743.772 811.618 753.254 795.42L748.076 792.388ZM711.757 828.152C696.486 836.719 679.619 841.016 661.097 841.016V847.016C680.591 847.016 698.476 842.481 714.693 833.384L711.757 828.152ZM661.097 802.088C677.966 802.088 691.686 796.427 701.927 784.958L697.451 780.962C688.492 790.997 676.484 796.088 661.097 796.088V802.088ZM701.907 784.98C712.305 773.562 717.377 758.579 717.377 740.336H711.377C711.377 757.421 706.657 770.854 697.471 780.94L701.907 784.98ZM717.377 740.336C717.377 721.914 712.311 706.912 701.889 695.672L697.489 699.752C706.651 709.632 711.377 723.046 711.377 740.336H717.377ZM701.927 695.714C691.686 684.245 677.966 678.584 661.097 678.584V684.584C676.484 684.584 688.492 689.675 697.451 699.71L701.927 695.714ZM661.097 678.584C644.065 678.584 630.167 684.127 619.729 695.384L624.129 699.464C633.275 689.601 645.489 684.584 661.097 684.584V678.584ZM619.709 695.406C609.485 706.653 604.529 721.747 604.529 740.336H610.529C610.529 722.829 615.173 709.315 624.149 699.442L619.709 695.406ZM604.529 740.336C604.529 758.746 609.491 773.821 619.691 785.246L624.167 781.25C615.167 771.171 610.529 757.638 610.529 740.336H604.529ZM619.729 785.288C630.167 796.545 644.065 802.088 661.097 802.088V796.088C645.489 796.088 633.275 791.071 624.129 781.208L619.729 785.288ZM974.191 842L971.564 843.448L972.419 845H974.191V842ZM932.143 765.68L934.771 764.232L933.916 762.68H932.143V765.68ZM920.335 765.68V762.68H917.335V765.68H920.335ZM920.335 842V845H923.335V842H920.335ZM871.087 842H868.087V845H871.087V842ZM871.087 639.824V636.824H868.087V639.824H871.087ZM994.351 648.176L993.01 650.859L993.019 650.864L993.028 650.868L994.351 648.176ZM1019.7 671.216L1017.09 672.699L1017.09 672.71L1017.1 672.721L1019.7 671.216ZM1016.53 739.472L1014.1 737.707L1014.09 737.722L1014.08 737.737L1016.53 739.472ZM983.119 761.936L982.261 759.061L978.608 760.153L980.527 763.446L983.119 761.936ZM1029.78 842V845H1035L1032.37 840.49L1029.78 842ZM920.335 730.832H917.335V733.832H920.335V730.832ZM971.023 724.208L968.947 722.042L968.924 722.064L968.902 722.087L971.023 724.208ZM971.023 687.344L968.902 689.465L968.924 689.488L968.947 689.51L971.023 687.344ZM920.335 680.72V677.72H917.335V680.72H920.335ZM976.819 840.552L934.771 764.232L929.516 767.128L971.564 843.448L976.819 840.552ZM932.143 762.68H920.335V768.68H932.143V762.68ZM917.335 765.68V842H923.335V765.68H917.335ZM920.335 839H871.087V845H920.335V839ZM874.087 842V639.824H868.087V842H874.087ZM871.087 642.824H953.743V636.824H871.087V642.824ZM953.743 642.824C969.34 642.824 982.39 645.55 993.01 650.859L995.693 645.493C984.04 639.666 970.019 636.824 953.743 636.824V642.824ZM993.028 650.868C1003.88 656.204 1011.85 663.491 1017.09 672.699L1022.3 669.733C1016.4 659.356 1007.47 651.284 995.675 645.484L993.028 650.868ZM1017.1 672.721C1022.38 681.831 1025.05 692.057 1025.05 703.472H1031.05C1031.05 691.079 1028.14 679.801 1022.29 669.711L1017.1 672.721ZM1025.05 703.472C1025.05 716.298 1021.4 727.676 1014.1 737.707L1018.95 741.237C1027.02 730.148 1031.05 717.526 1031.05 703.472H1025.05ZM1014.08 737.737C1007.05 747.651 996.53 754.799 982.261 759.061L983.978 764.81C999.276 760.241 1011.03 752.413 1018.97 741.207L1014.08 737.737ZM980.527 763.446L1027.18 843.51L1032.37 840.49L985.711 760.426L980.527 763.446ZM1029.78 839H974.191V845H1029.78V839ZM920.335 733.832H950.863V727.832H920.335V733.832ZM950.863 733.832C960.328 733.832 967.957 731.517 973.145 726.329L968.902 722.087C965.258 725.731 959.447 727.832 950.863 727.832V733.832ZM973.099 726.374C978.444 721.252 980.935 714.141 980.935 705.488H974.935C974.935 712.963 972.818 718.332 968.947 722.042L973.099 726.374ZM980.935 705.488C980.935 697.169 978.415 690.273 973.099 685.178L968.947 689.51C972.847 693.247 974.935 698.447 974.935 705.488H980.935ZM973.145 685.223C967.957 680.035 960.328 677.72 950.863 677.72V683.72C959.447 683.72 965.258 685.821 968.902 689.465L973.145 685.223ZM950.863 677.72H920.335V683.72H950.863V677.72ZM917.335 680.72V730.832H923.335V680.72H917.335ZM1187.41 679.28V676.28H1184.41V679.28H1187.41ZM1187.41 720.176H1184.41V723.176H1187.41V720.176ZM1253.36 720.176H1256.36V717.176H1253.36V720.176ZM1253.36 758.192V761.192H1256.36V758.192H1253.36ZM1187.41 758.192V755.192H1184.41V758.192H1187.41ZM1187.41 802.544H1184.41V805.544H1187.41V802.544ZM1262 802.544H1265V799.544H1262V802.544ZM1262 842V845H1265V842H1262ZM1138.16 842H1135.16V845H1138.16V842ZM1138.16 639.824V636.824H1135.16V639.824H1138.16ZM1262 639.824H1265V636.824H1262V639.824ZM1262 679.28V682.28H1265V679.28H1262ZM1184.41 679.28V720.176H1190.41V679.28H1184.41ZM1187.41 723.176H1253.36V717.176H1187.41V723.176ZM1250.36 720.176V758.192H1256.36V720.176H1250.36ZM1253.36 755.192H1187.41V761.192H1253.36V755.192ZM1184.41 758.192V802.544H1190.41V758.192H1184.41ZM1187.41 805.544H1262V799.544H1187.41V805.544ZM1259 802.544V842H1265V802.544H1259ZM1262 839H1138.16V845H1262V839ZM1141.16 842V639.824H1135.16V842H1141.16ZM1138.16 642.824H1262V636.824H1138.16V642.824ZM1259 639.824V679.28H1265V639.824H1259ZM1262 676.28H1187.41V682.28H1262V676.28Z" fill="#7CB083" fill-opacity="0.47"/>
</g>
<defs>
<filter id="filter0_d_6_128" x="26.0435" y="352.944" width="1243.96" height="499.072" filterUnits="userSpaceOnUse" color-interpolation-filters="sRGB">
<feFlood flood-opacity="0" result="BackgroundImageFix"/>
<feColorMatrix in="SourceAlpha" type="matrix" values="0 0 0 0 0 0 0 0 0 0 0 0 0 0 0 0 0 0 127 0" result="hardAlpha"/>
<feOffset dx="4" dy="4"/>
<feGaussianBlur stdDeviation="2"/>
<feComposite in2="hardAlpha" operator="out"/>
<feColorMatrix type="matrix" values="0 0 0 0 0.486275 0 0 0 0 0.690196 0 0 0 0 0.513726 0 0 0 0.47 0"/>
<feBlend mode="normal" in2="BackgroundImageFix" result="effect1_dropShadow_6_128"/>
<feBlend mode="normal" in="SourceGraphic" in2="effect1_dropShadow_6_128" result="shape"/>
</filter>
</defs>
</svg>
