<svg width="312" height="171" viewBox="0 0 312 171" fill="none" xmlns="http://www.w3.org/2000/svg">
<path d="M28.72 68C28.016 68 27.568 67.68 27.376 67.04L19.984 40.544C19.856 40.288 19.696 40.16 19.504 40.16H16.24C15.92 40.16 15.76 40.32 15.76 40.64V66.848C15.76 67.168 15.632 67.456 15.376 67.712C15.184 67.904 14.928 68 14.608 68H3.376C3.056 68 2.768 67.904 2.512 67.712C2.32 67.456 2.224 67.168 2.224 66.848V1.952C2.224 1.632 2.32 1.376 2.512 1.184C2.768 0.927996 3.056 0.799995 3.376 0.799995H22.768C26.288 0.799995 29.424 1.664 32.176 3.392C34.928 5.056 37.04 7.424 38.512 10.496C40.048 13.568 40.816 17.088 40.816 21.056C40.816 24.832 40.08 28.16 38.608 31.04C37.2 33.92 35.216 36.16 32.656 37.76C32.528 37.824 32.432 37.92 32.368 38.048C32.304 38.112 32.304 38.208 32.368 38.336L41.2 66.656L41.296 67.04C41.296 67.68 40.944 68 40.24 68H28.72ZM16.24 12.416C15.92 12.416 15.76 12.576 15.76 12.896V29.312C15.76 29.632 15.92 29.792 16.24 29.792H20.56C22.544 29.792 24.144 29.024 25.36 27.488C26.64 25.888 27.28 23.776 27.28 21.152C27.28 18.464 26.64 16.352 25.36 14.816C24.144 13.216 22.544 12.416 20.56 12.416H16.24ZM90.3235 68.768C84.4355 68.768 79.7315 67.04 76.2115 63.584C72.6915 60.128 70.9315 55.52 70.9315 49.76V19.04C70.9315 13.28 72.6915 8.672 76.2115 5.216C79.7315 1.76 84.4355 0.0319996 90.3235 0.0319996C96.2115 0.0319996 100.915 1.76 104.435 5.216C108.019 8.672 109.811 13.28 109.811 19.04V49.76C109.811 55.52 108.019 60.128 104.435 63.584C100.915 67.04 96.2115 68.768 90.3235 68.768ZM90.3235 57.152C92.1155 57.152 93.5555 56.544 94.6435 55.328C95.7315 54.048 96.2755 52.384 96.2755 50.336V18.464C96.2755 16.416 95.7315 14.784 94.6435 13.568C93.5555 12.288 92.1155 11.648 90.3235 11.648C88.5315 11.648 87.0915 12.288 86.0035 13.568C84.9795 14.784 84.4675 16.416 84.4675 18.464V50.336C84.4675 52.384 84.9795 54.048 86.0035 55.328C87.0915 56.544 88.5315 57.152 90.3235 57.152ZM180.338 49.472C180.338 55.424 178.546 60 174.962 63.2C171.378 66.4 166.738 68 161.042 68H142.898C142.578 68 142.29 67.904 142.034 67.712C141.842 67.456 141.746 67.168 141.746 66.848V1.952C141.746 1.632 141.842 1.376 142.034 1.184C142.29 0.927996 142.578 0.799995 142.898 0.799995H158.93C165.33 0.799995 170.322 2.336 173.906 5.408C177.554 8.48 179.378 13.056 179.378 19.136C179.378 25.472 177.202 30.08 172.85 32.96C172.594 33.152 172.562 33.344 172.754 33.536C177.81 37.12 180.338 42.432 180.338 49.472ZM155.762 12.416C155.442 12.416 155.282 12.576 155.282 12.896V27.968C155.282 28.288 155.442 28.448 155.762 28.448H159.218C161.394 28.448 163.09 27.776 164.306 26.432C165.522 25.024 166.13 23.072 166.13 20.576C166.13 17.952 165.522 15.936 164.306 14.528C163.154 13.12 161.458 12.416 159.218 12.416H155.762ZM159.986 56.288C162.098 56.288 163.762 55.52 164.978 53.984C166.194 52.448 166.802 50.272 166.802 47.456C166.802 44.64 166.194 42.4 164.978 40.736C163.762 39.072 162.13 38.24 160.082 38.24H155.762C155.442 38.24 155.282 38.4 155.282 38.72V55.808C155.282 56.128 155.442 56.288 155.762 56.288H159.986ZM212.472 68C212.152 68 211.864 67.904 211.608 67.712C211.416 67.456 211.32 67.168 211.32 66.848V1.952C211.32 1.632 211.416 1.376 211.608 1.184C211.864 0.927996 212.152 0.799995 212.472 0.799995H223.704C224.024 0.799995 224.28 0.927996 224.472 1.184C224.728 1.376 224.856 1.632 224.856 1.952V66.848C224.856 67.168 224.728 67.456 224.472 67.712C224.28 67.904 224.024 68 223.704 68H212.472ZM285.381 1.952C285.381 1.632 285.477 1.376 285.669 1.184C285.925 0.927996 286.213 0.799995 286.533 0.799995H297.669C297.989 0.799995 298.245 0.927996 298.437 1.184C298.693 1.376 298.821 1.632 298.821 1.952V66.848C298.821 67.168 298.693 67.456 298.437 67.712C298.245 67.904 297.989 68 297.669 68H284.997C284.357 68 283.941 67.68 283.749 67.04L271.845 29.888C271.781 29.696 271.653 29.632 271.461 29.696C271.333 29.696 271.269 29.792 271.269 29.984L271.365 66.848C271.365 67.168 271.237 67.456 270.981 67.712C270.789 67.904 270.533 68 270.213 68H259.077C258.757 68 258.469 67.904 258.213 67.712C258.021 67.456 257.925 67.168 257.925 66.848V1.952C257.925 1.632 258.021 1.376 258.213 1.184C258.469 0.927996 258.757 0.799995 259.077 0.799995H271.653C272.293 0.799995 272.709 1.12 272.901 1.75999L284.901 38.912C284.965 39.104 285.061 39.2 285.189 39.2C285.381 39.136 285.477 39.008 285.477 38.816L285.381 1.952ZM19.504 170.768C15.792 170.768 12.528 170.032 9.712 168.56C6.896 167.088 4.72 165.04 3.184 162.416C1.648 159.728 0.88 156.656 0.88 153.2V150.416C0.88 150.096 0.976 149.84 1.168 149.648C1.424 149.392 1.712 149.264 2.032 149.264H13.072C13.392 149.264 13.648 149.392 13.84 149.648C14.096 149.84 14.224 150.096 14.224 150.416V152.528C14.224 154.512 14.736 156.112 15.76 157.328C16.784 158.544 18.064 159.152 19.6 159.152C21.136 159.152 22.416 158.576 23.44 157.424C24.464 156.272 24.976 154.768 24.976 152.912C24.976 150.992 24.336 149.36 23.056 148.016C21.776 146.608 19.28 144.56 15.568 141.872C12.368 139.568 9.776 137.52 7.792 135.728C5.808 133.936 4.112 131.728 2.704 129.104C1.296 126.48 0.592 123.44 0.592 119.984C0.592 114.544 2.288 110.192 5.68 106.928C9.072 103.664 13.552 102.032 19.12 102.032C24.752 102.032 29.264 103.728 32.656 107.12C36.112 110.512 37.84 114.96 37.84 120.464V122.768C37.84 123.088 37.712 123.376 37.456 123.632C37.264 123.824 37.008 123.92 36.688 123.92H25.648C25.328 123.92 25.04 123.824 24.784 123.632C24.592 123.376 24.496 123.088 24.496 122.768V120.176C24.496 118.192 23.984 116.624 22.96 115.472C22 114.256 20.72 113.648 19.12 113.648C17.584 113.648 16.336 114.224 15.376 115.376C14.416 116.464 13.936 118 13.936 119.984C13.936 121.904 14.544 123.6 15.76 125.072C16.976 126.544 19.376 128.592 22.96 131.216C26.928 134.16 29.904 136.56 31.888 138.416C33.936 140.208 35.504 142.224 36.592 144.464C37.744 146.64 38.32 149.264 38.32 152.336C38.32 157.968 36.592 162.448 33.136 165.776C29.68 169.104 25.136 170.768 19.504 170.768ZM106.046 102.8C106.366 102.8 106.622 102.928 106.814 103.184C107.07 103.376 107.198 103.632 107.198 103.952V113.264C107.198 113.584 107.07 113.872 106.814 114.128C106.622 114.32 106.366 114.416 106.046 114.416H94.0457C93.7257 114.416 93.5657 114.576 93.5657 114.896V168.848C93.5657 169.168 93.4377 169.456 93.1817 169.712C92.9897 169.904 92.7337 170 92.4137 170H81.1817C80.8617 170 80.5737 169.904 80.3177 169.712C80.1257 169.456 80.0297 169.168 80.0297 168.848V114.896C80.0297 114.576 79.8697 114.416 79.5497 114.416H68.0297C67.7097 114.416 67.4217 114.32 67.1657 114.128C66.9737 113.872 66.8777 113.584 66.8777 113.264V103.952C66.8777 103.632 66.9737 103.376 67.1657 103.184C67.4217 102.928 67.7097 102.8 68.0297 102.8H106.046ZM154.835 170.768C148.947 170.768 144.243 169.04 140.723 165.584C137.203 162.128 135.443 157.52 135.443 151.76V121.04C135.443 115.28 137.203 110.672 140.723 107.216C144.243 103.76 148.947 102.032 154.835 102.032C160.723 102.032 165.427 103.76 168.947 107.216C172.531 110.672 174.323 115.28 174.323 121.04V151.76C174.323 157.52 172.531 162.128 168.947 165.584C165.427 169.04 160.723 170.768 154.835 170.768ZM154.835 159.152C156.627 159.152 158.067 158.544 159.155 157.328C160.243 156.048 160.787 154.384 160.787 152.336V120.464C160.787 118.416 160.243 116.784 159.155 115.568C158.067 114.288 156.627 113.648 154.835 113.648C153.043 113.648 151.603 114.288 150.515 115.568C149.491 116.784 148.979 118.416 148.979 120.464V152.336C148.979 154.384 149.491 156.048 150.515 157.328C151.603 158.544 153.043 159.152 154.835 159.152ZM232.754 170C232.05 170 231.602 169.68 231.41 169.04L224.018 142.544C223.89 142.288 223.73 142.16 223.538 142.16H220.274C219.954 142.16 219.794 142.32 219.794 142.64V168.848C219.794 169.168 219.666 169.456 219.41 169.712C219.218 169.904 218.962 170 218.642 170H207.41C207.09 170 206.802 169.904 206.546 169.712C206.354 169.456 206.258 169.168 206.258 168.848V103.952C206.258 103.632 206.354 103.376 206.546 103.184C206.802 102.928 207.09 102.8 207.41 102.8H226.802C230.322 102.8 233.458 103.664 236.21 105.392C238.962 107.056 241.074 109.424 242.546 112.496C244.082 115.568 244.85 119.088 244.85 123.056C244.85 126.832 244.114 130.16 242.642 133.04C241.234 135.92 239.25 138.16 236.69 139.76C236.562 139.824 236.466 139.92 236.402 140.048C236.338 140.112 236.338 140.208 236.402 140.336L245.234 168.656L245.33 169.04C245.33 169.68 244.978 170 244.274 170H232.754ZM220.274 114.416C219.954 114.416 219.794 114.576 219.794 114.896V131.312C219.794 131.632 219.954 131.792 220.274 131.792H224.594C226.578 131.792 228.178 131.024 229.394 129.488C230.674 127.888 231.314 125.776 231.314 123.152C231.314 120.464 230.674 118.352 229.394 116.816C228.178 115.216 226.578 114.416 224.594 114.416H220.274ZM311.157 113.264C311.157 113.584 311.029 113.872 310.773 114.128C310.581 114.32 310.325 114.416 310.005 114.416H289.941C289.621 114.416 289.461 114.576 289.461 114.896V130.064C289.461 130.384 289.621 130.544 289.941 130.544H301.461C301.781 130.544 302.037 130.672 302.229 130.928C302.485 131.12 302.613 131.376 302.613 131.696V141.008C302.613 141.328 302.485 141.616 302.229 141.872C302.037 142.064 301.781 142.16 301.461 142.16H289.941C289.621 142.16 289.461 142.32 289.461 142.64V157.904C289.461 158.224 289.621 158.384 289.941 158.384H310.005C310.325 158.384 310.581 158.512 310.773 158.768C311.029 158.96 311.157 159.216 311.157 159.536V168.848C311.157 169.168 311.029 169.456 310.773 169.712C310.581 169.904 310.325 170 310.005 170H277.077C276.757 170 276.469 169.904 276.213 169.712C276.021 169.456 275.925 169.168 275.925 168.848V103.952C275.925 103.632 276.021 103.376 276.213 103.184C276.469 102.928 276.757 102.8 277.077 102.8H310.005C310.325 102.8 310.581 102.928 310.773 103.184C311.029 103.376 311.157 103.632 311.157 103.952V113.264Z" fill="#F2CC8F"/>
</svg>
